<?xml version="1.0" encoding="UTF-8" standalone="no"?>
<!DOCTYPE svg PUBLIC "-//W3C//DTD SVG 1.1//EN" "http://www.w3.org/Graphics/SVG/1.1/DTD/svg11.dtd">
<svg xmlns="http://www.w3.org/2000/svg" version="1.1" viewBox="0.00 0.00 1166.00 512.00">
<g stroke-width="2.00" fill="none" stroke-linecap="butt">
<path stroke="#a9a9a9" vector-effect="non-scaling-stroke" d="
  M 742.87 62.81
  Q 723.03 54.18 700.84 51.91
  Q 690.02 50.80 677.38 50.50
  Q 675.01 50.45 674.97 52.82
  L 674.96 53.49
  Q 674.90 56.54 677.91 56.98
  Q 682.47 57.66 687.56 58.68
  C 720.35 65.25 732.14 94.42 738.31 123.36
  Q 738.68 125.12 739.44 126.74
  A 1.24 1.23 77.7 0 0 740.54 127.45
  L 749.04 127.63
  Q 751.08 127.67 751.15 125.64
  Q 752.05 97.96 753.71 70.17
  A 1.73 1.73 0.0 0 0 753.00 68.66
  Q 748.22 65.14 742.87 62.81"
/>
<path stroke="#a9a9a9" vector-effect="non-scaling-stroke" d="
  M 612.95 287.36
  Q 617.83 289.66 622.98 291.27
  Q 637.82 295.90 653.32 297.59
  Q 654.91 297.76 654.90 296.17
  L 654.89 292.86
  Q 654.88 291.53 653.59 291.25
  C 647.81 289.98 642.35 288.64 637.25 285.22
  C 628.64 279.45 622.86 271.72 618.85 261.75
  C 613.57 248.63 611.46 235.98 609.82 222.00
  Q 608.28 208.94 608.02 199.23
  Q 607.41 176.39 607.96 149.19
  C 608.17 138.70 609.60 128.37 610.82 117.89
  Q 611.49 112.10 612.78 105.97
  C 617.58 83.10 626.85 61.93 652.49 57.47
  Q 654.32 57.15 654.45 55.29
  L 654.61 52.85
  Q 654.73 51.02 652.90 51.08
  Q 645.46 51.34 640.76 52.21
  C 615.63 56.89 591.73 69.60 574.85 88.86
  Q 558.57 107.43 551.36 129.73
  C 549.58 135.23 547.68 141.13 546.61 146.94
  Q 539.46 185.68 552.23 221.15
  Q 568.55 266.45 612.95 287.36"
/>
<path stroke="#a9a9a9" vector-effect="non-scaling-stroke" d="
  M 386.64 292.42
  Q 386.69 290.09 384.63 289.45
  C 381.54 288.50 378.55 288.44 375.69 286.63
  Q 366.07 280.54 362.97 270.04
  Q 360.82 262.79 360.81 254.42
  Q 360.69 156.79 360.82 54.84
  Q 360.82 53.31 359.30 53.32
  L 287.23 53.38
  Q 285.34 53.38 285.27 55.27
  L 285.20 57.16
  Q 285.13 59.10 287.06 59.31
  C 295.20 60.15 301.87 62.77 306.08 70.39
  Q 309.37 76.35 309.93 81.15
  C 310.31 84.50 310.50 87.99 310.51 91.34
  Q 310.55 173.67 310.45 256.00
  Q 310.44 268.57 304.45 278.56
  Q 300.50 285.16 293.19 287.93
  C 291.10 288.73 288.79 288.95 286.62 289.60
  Q 285.49 289.94 285.28 291.11
  Q 284.55 295.17 288.74 295.16
  C 319.48 295.06 350.77 295.26 382.02 295.13
  C 384.33 295.12 386.58 295.41 386.64 292.42"
/>
<path stroke="#a9a9a9" vector-effect="non-scaling-stroke" d="
  M 426.61 180.31
  Q 426.54 180.08 426.78 180.07
  Q 442.59 178.73 457.60 171.81
  Q 470.21 165.99 478.11 155.40
  C 486.66 143.92 489.56 126.87 488.28 111.89
  Q 487.41 101.61 483.48 92.03
  C 475.96 73.67 458.00 63.50 438.59 59.18
  Q 422.74 55.66 411.48 54.79
  Q 397.23 53.70 383.95 53.23
  Q 381.54 53.14 381.51 55.54
  L 381.49 57.03
  Q 381.46 59.28 383.71 59.39
  Q 397.27 60.08 405.93 62.91
  Q 420.22 67.59 426.46 83.13
  Q 429.16 89.83 430.13 95.69
  Q 433.99 118.92 429.90 143.61
  Q 428.24 153.66 421.97 163.63
  C 416.98 171.57 406.67 176.17 397.89 177.62
  Q 391.55 178.66 384.20 178.97
  Q 381.77 179.08 381.79 181.36
  C 381.81 183.31 381.52 185.54 383.98 186.14
  Q 396.73 189.28 404.95 196.64
  C 412.48 203.37 417.35 212.04 420.20 221.18
  Q 426.99 242.97 433.21 262.76
  C 435.48 269.97 438.38 276.89 442.53 283.25
  Q 446.57 289.44 453.56 291.61
  Q 461.82 294.17 472.69 294.61
  Q 500.82 295.75 526.77 295.07
  Q 528.04 295.03 528.33 293.80
  C 528.69 292.29 528.60 289.61 526.73 289.23
  Q 510.00 285.81 498.86 274.77
  C 490.25 266.23 487.91 254.86 484.45 243.73
  Q 479.75 228.57 471.85 214.46
  Q 463.88 200.23 453.07 191.25
  Q 441.65 181.75 427.43 181.16
  A 0.81 0.79 82.2 0 1 426.70 180.59
  L 426.61 180.31"
/>
<path stroke="#a9a9a9" vector-effect="non-scaling-stroke" d="
  M 678.53 298.17
  Q 697.50 296.69 709.58 294.89
  Q 719.32 293.44 729.09 291.38
  Q 740.44 288.99 753.51 284.65
  Q 755.18 284.10 755.19 282.47
  Q 755.39 258.17 756.65 241.02
  C 757.42 230.43 758.04 221.89 761.84 213.45
  C 764.99 206.43 771.15 205.26 777.94 204.83
  Q 779.61 204.72 779.55 203.05
  L 779.45 200.54
  Q 779.39 198.94 777.79 198.94
  L 683.68 199.00
  Q 681.56 199.00 681.56 201.11
  L 681.55 203.10
  Q 681.54 204.97 683.41 204.94
  C 693.84 204.80 702.40 206.08 706.65 216.59
  C 710.48 226.08 710.81 235.71 711.00 246.00
  Q 711.22 257.01 710.66 266.98
  C 710.07 277.57 705.37 286.65 694.42 289.39
  Q 685.68 291.58 678.41 291.52
  Q 676.10 291.50 676.13 293.81
  L 676.16 296.02
  Q 676.20 298.35 678.53 298.17"
/>
<path stroke="#a9a9a9" vector-effect="non-scaling-stroke" d="
  M 775.87 321.52
  A 1.68 1.68 0.0 0 0 774.19 319.84
  L 285.03 319.84
  A 1.68 1.68 0.0 0 0 283.35 321.52
  L 283.35 328.56
  A 1.68 1.68 0.0 0 0 285.03 330.24
  L 774.19 330.24
  A 1.68 1.68 0.0 0 0 775.87 328.56
  L 775.87 321.52"
/>
<path stroke="#808080" vector-effect="non-scaling-stroke" d="
  M 680.13 406.82
  C 679.28 428.26 692.13 444.60 713.25 448.53
  A 1.21 1.18 41.2 0 0 713.80 448.50
  Q 715.75 447.88 714.32 446.23
  A 1.26 1.24 -12.5 0 0 713.73 445.86
  Q 705.75 443.56 703.12 434.51
  Q 701.31 428.26 700.91 422.51
  Q 699.91 407.82 701.07 393.13
  C 701.74 384.55 704.11 373.68 713.89 371.33
  A 1.29 1.28 -16.0 0 0 714.81 369.68
  L 714.73 369.43
  A 1.01 1.00 -13.9 0 0 713.61 368.76
  C 693.20 372.24 680.94 386.70 680.13 406.82"
/>
<path stroke="#808080" vector-effect="non-scaling-stroke" d="
  M 732.94 374.19
  C 738.54 378.53 741.08 384.55 742.21 391.57
  Q 742.52 393.52 744.48 393.31
  L 744.99 393.26
  Q 746.89 393.06 746.84 391.15
  Q 746.65 383.87 747.50 377.18
  C 747.71 375.56 747.07 374.17 745.57 373.46
  Q 735.95 368.87 723.54 368.74
  Q 722.96 368.74 722.60 369.19
  Q 722.19 369.70 722.38 370.32
  A 1.10 1.10 0.0 0 0 723.26 371.09
  C 726.69 371.64 730.12 372.00 732.94 374.19"
/>
<path stroke="#808080" vector-effect="non-scaling-stroke" d="
  M 82.18 410.12
  C 84.71 408.98 87.43 409.07 89.92 407.88
  C 98.28 403.91 101.52 394.58 99.41 385.80
  Q 96.89 375.27 86.16 372.16
  Q 77.97 369.79 66.69 369.38
  Q 66.13 369.36 65.92 369.88
  Q 65.79 370.20 65.79 370.55
  Q 65.80 371.50 66.74 371.66
  Q 67.90 371.86 69.51 371.94
  C 82.93 372.54 82.43 389.02 81.17 398.18
  C 80.18 405.33 75.21 410.13 67.65 409.51
  Q 66.98 409.46 66.39 409.70
  Q 65.45 410.08 65.63 411.15
  A 1.41 1.40 3.4 0 0 66.61 412.25
  Q 74.09 414.48 77.30 422.38
  Q 79.62 428.09 81.77 436.02
  C 82.88 440.12 85.12 445.41 89.48 446.71
  Q 92.29 447.56 94.92 447.64
  Q 102.62 447.89 112.06 447.77
  A 0.95 0.95 0.0 0 0 112.90 446.40
  Q 112.45 445.49 111.46 445.30
  C 104.54 443.98 101.36 439.89 99.41 433.56
  C 97.44 427.13 94.88 421.45 90.69 416.07
  C 88.30 413.00 85.77 412.17 82.26 411.19
  Q 80.76 410.77 82.18 410.12"
/>
<path stroke="#808080" vector-effect="non-scaling-stroke" d="
  M 42.45 433.99
  C 42.43 436.33 41.77 442.07 39.36 443.55
  Q 37.61 444.64 35.64 445.55
  Q 34.46 446.10 34.65 447.28
  A 0.66 0.65 -4.0 0 0 35.30 447.84
  Q 50.58 447.68 65.47 447.81
  Q 66.15 447.82 66.72 447.48
  A 0.79 0.79 0.0 0 0 66.62 446.07
  Q 63.78 444.90 61.95 443.34
  C 59.46 441.23 58.73 436.27 58.72 433.22
  Q 58.60 398.69 58.72 370.58
  A 0.96 0.95 -0.9 0 0 57.72 369.62
  Q 46.72 370.05 36.48 369.43
  A 1.57 1.47 -53.6 0 0 35.78 369.56
  Q 33.52 370.54 35.71 371.74
  A 1.05 1.03 63.9 0 0 36.05 371.86
  C 41.78 372.95 42.39 377.50 42.43 382.32
  Q 42.63 407.99 42.45 433.99"
/>
<path stroke="#808080" vector-effect="non-scaling-stroke" d="
  M 572.64 397.84
  Q 577.17 398.59 582.10 398.54
  Q 583.19 398.53 583.16 397.45
  L 583.15 397.02
  Q 583.13 396.11 582.21 396.11
  Q 577.10 396.11 572.57 396.66
  A 1.86 1.86 0.0 0 1 570.49 394.80
  L 570.56 380.48
  A 1.11 1.10 85.0 0 0 569.27 379.39
  L 558.03 381.39
  A 1.85 1.84 85.0 0 0 556.51 383.21
  L 556.52 394.73
  A 1.60 1.59 -1.9 0 1 555.03 396.32
  Q 553.74 396.40 552.38 396.62
  Q 551.48 396.77 551.49 397.72
  A 0.55 0.55 0.0 0 0 551.96 398.25
  L 555.35 398.75
  A 1.46 1.45 -85.6 0 1 556.58 400.19
  Q 556.49 415.83 556.56 431.19
  C 556.60 437.89 557.82 445.99 564.78 447.93
  C 573.96 450.49 581.35 446.23 586.80 438.98
  Q 587.21 438.44 586.55 437.83
  A 0.92 0.91 55.3 0 0 585.58 437.65
  Q 583.48 438.52 581.86 439.56
  C 578.96 441.43 575.38 440.90 572.94 438.47
  C 570.79 436.33 570.54 433.26 570.53 430.40
  Q 570.46 415.86 570.61 399.55
  A 1.74 1.74 0.0 0 1 572.64 397.84"
/>
<path stroke="#808080" vector-effect="non-scaling-stroke" d="
  M 892.85 398.12
  L 902.90 398.43
  Q 904.27 398.48 904.20 397.10
  L 904.19 396.83
  A 0.83 0.83 0.0 0 0 903.34 396.04
  L 893.16 396.34
  A 1.21 1.20 -0.9 0 1 891.91 395.14
  L 891.82 380.35
  A 1.03 1.03 0.0 0 0 890.60 379.35
  L 879.48 381.47
  A 1.91 1.90 -7.5 0 0 877.94 383.47
  Q 878.27 388.48 877.88 394.05
  Q 877.64 397.43 874.81 396.62
  A 1.33 1.33 0.0 0 0 873.51 396.96
  Q 873.37 397.10 873.30 397.30
  Q 873.03 398.18 873.93 398.40
  Q 874.70 398.58 875.47 398.36
  A 2.04 2.04 0.0 0 1 878.05 400.33
  Q 878.08 415.49 878.06 432.50
  C 878.06 437.75 879.94 446.18 885.80 447.81
  Q 896.77 450.88 904.63 443.02
  Q 906.45 441.20 908.27 439.33
  Q 908.95 438.64 908.35 437.87
  A 0.88 0.88 0.0 0 0 907.26 437.64
  C 903.79 439.42 900.15 441.76 896.19 439.85
  C 893.25 438.43 892.07 434.73 892.02 431.64
  Q 891.72 415.58 892.00 398.93
  Q 892.01 398.10 892.85 398.12"
/>
<path stroke="#808080" vector-effect="non-scaling-stroke" d="
  M 243.76 396.06
  Q 243.08 394.94 243.06 393.49
  Q 242.95 386.69 243.15 380.36
  A 0.92 0.91 85.9 0 0 242.08 379.43
  L 230.48 381.43
  A 1.50 1.49 -4.1 0 0 229.24 382.85
  Q 229.06 387.77 229.18 392.60
  Q 229.23 394.59 228.25 396.06
  Q 227.93 396.55 227.34 396.53
  L 225.29 396.47
  Q 224.59 396.45 224.35 397.12
  Q 224.23 397.48 224.25 397.84
  Q 224.29 398.52 224.97 398.49
  L 227.19 398.39
  A 1.92 1.92 0.0 0 1 229.20 400.33
  Q 229.09 417.86 229.26 433.20
  Q 229.32 438.33 231.10 442.27
  C 233.57 447.76 238.29 448.86 243.79 448.62
  C 249.73 448.37 254.65 444.60 258.58 440.26
  A 2.06 2.04 51.0 0 0 258.82 437.84
  Q 258.41 437.14 256.47 438.30
  A 1.94 1.14 -3.9 0 0 256.25 438.45
  C 251.01 442.79 243.57 440.51 243.31 432.91
  Q 242.88 419.89 243.19 399.84
  A 1.74 1.73 -87.9 0 1 245.02 398.13
  L 254.18 398.66
  Q 255.10 398.71 255.20 397.79
  L 255.25 397.35
  Q 255.39 396.06 254.10 396.11
  L 244.55 396.49
  Q 244.03 396.51 243.76 396.06"
/>
<path stroke="#808080" vector-effect="non-scaling-stroke" d="
  M 132.80 419.16
  A 0.90 0.89 4.4 0 1 131.96 418.19
  Q 132.38 413.37 133.63 408.06
  C 134.67 403.61 136.56 401.31 139.68 398.42
  Q 140.82 397.36 140.37 395.95
  A 0.94 0.93 71.7 0 0 139.17 395.34
  C 131.05 398.14 124.55 401.08 120.66 409.23
  C 114.85 421.44 117.91 435.90 128.69 443.98
  Q 133.63 447.68 138.68 448.31
  C 148.14 449.50 157.01 446.73 162.99 439.21
  Q 164.82 436.92 164.91 434.32
  Q 164.94 433.36 163.97 433.21
  Q 163.43 433.13 163.08 433.54
  Q 157.10 440.54 147.81 439.32
  C 145.24 438.98 143.09 438.76 140.80 437.25
  Q 132.95 432.09 132.18 422.34
  A 1.10 1.10 0.0 0 1 133.39 421.15
  Q 135.63 421.40 137.56 421.36
  Q 150.44 421.10 166.14 421.08
  Q 167.55 421.08 167.48 419.67
  C 167.11 412.84 165.56 405.65 160.48 400.93
  C 157.01 397.71 151.91 396.30 147.38 395.28
  Q 146.30 395.04 145.82 396.05
  A 1.16 1.16 0.0 0 0 146.14 397.47
  C 152.27 402.39 153.63 410.02 153.82 417.45
  A 1.56 1.56 0.0 0 1 152.38 419.05
  Q 142.42 419.74 132.80 419.16"
/>
<path stroke="#808080" vector-effect="non-scaling-stroke" d="
  M 203.81 399.69
  C 208.46 402.13 209.99 405.61 211.73 410.11
  Q 212.11 411.08 213.22 411.15
  A 0.80 0.80 0.0 0 0 214.08 410.36
  L 214.20 400.09
  A 1.97 1.96 -80.2 0 0 212.87 398.20
  Q 207.14 396.23 200.89 395.35
  Q 199.85 395.21 199.04 395.80
  A 1.10 1.10 0.0 0 0 199.32 397.72
  Q 201.63 398.55 203.81 399.69"
/>
<path stroke="#808080" vector-effect="non-scaling-stroke" d="
  M 293.96 421.81
  Q 294.43 422.78 294.44 423.91
  Q 294.48 430.47 294.48 437.13
  Q 294.49 446.57 302.81 448.23
  Q 312.49 450.15 318.43 442.04
  Q 318.98 441.28 318.40 440.53
  A 0.96 0.96 0.0 0 0 317.15 440.29
  Q 315.26 441.39 313.16 441.58
  A 2.88 2.87 -16.0 0 1 310.35 440.03
  C 309.22 437.82 308.47 435.46 308.48 432.94
  Q 308.52 424.75 308.50 416.12
  C 308.48 407.47 305.60 398.68 296.51 396.37
  C 292.92 395.46 285.57 394.23 282.25 396.64
  A 0.65 0.65 0.0 0 0 282.49 397.80
  C 284.61 398.29 286.80 398.04 288.76 399.13
  Q 292.51 401.23 293.52 405.38
  Q 294.83 410.81 294.38 417.91
  A 1.79 1.78 -4.3 0 1 292.96 419.55
  Q 285.64 421.08 277.90 423.54
  C 270.71 425.83 265.12 429.58 265.70 438.17
  C 266.06 443.47 270.85 447.83 275.95 448.44
  Q 282.76 449.25 289.26 445.53
  Q 290.84 444.62 290.79 442.91
  A 1.29 1.28 89.5 0 0 289.53 441.66
  Q 286.99 441.62 284.56 441.36
  C 280.23 440.89 279.66 434.93 280.35 431.65
  C 281.48 426.33 288.52 422.28 293.04 421.36
  A 0.85 0.85 0.0 0 1 293.96 421.81"
/>
<path stroke="#808080" vector-effect="non-scaling-stroke" d="
  M 360.34 401.49
  Q 361.18 403.17 361.19 404.94
  Q 361.32 426.14 361.13 446.75
  A 1.71 1.70 -85.5 0 0 362.58 448.45
  Q 364.03 448.67 365.54 448.38
  Q 372.43 447.07 378.51 446.38
  Q 380.08 446.20 380.41 444.78
  A 1.16 1.16 0.0 0 0 379.42 443.37
  C 374.08 442.70 374.84 438.02 374.83 434.26
  Q 374.79 415.21 374.74 396.53
  A 1.14 1.13 -5.3 0 0 373.39 395.42
  Q 365.98 396.81 357.44 397.04
  Q 356.91 397.05 356.48 397.39
  Q 355.94 397.83 356.13 398.50
  Q 356.27 398.97 356.71 399.18
  C 358.01 399.80 359.63 400.09 360.34 401.49"
/>
<path stroke="#808080" vector-effect="non-scaling-stroke" d="
  M 462.72 422.18
  Q 462.81 428.20 462.70 434.60
  Q 462.63 439.02 463.69 442.37
  C 465.78 448.99 473.95 449.43 479.66 447.63
  C 481.79 446.96 486.64 443.56 486.70 441.01
  A 0.85 0.84 -12.9 0 0 485.47 440.24
  Q 483.40 441.28 481.20 441.59
  C 477.91 442.07 476.74 436.10 476.73 433.89
  Q 476.70 426.24 476.77 418.67
  C 476.84 410.85 475.24 400.23 467.04 397.18
  Q 460.15 394.62 452.73 395.56
  Q 451.42 395.73 450.50 396.72
  Q 450.38 396.86 450.33 397.04
  Q 450.02 398.13 451.15 398.09
  Q 460.05 397.79 461.83 406.08
  Q 462.95 411.25 462.74 417.68
  Q 462.70 418.88 461.54 419.20
  Q 454.43 421.19 447.73 422.98
  Q 442.11 424.49 437.91 427.70
  C 433.60 431.01 432.48 437.90 435.09 442.40
  C 440.05 450.95 450.95 449.53 458.39 444.85
  C 459.42 444.20 459.48 442.91 458.79 442.01
  A 1.29 1.28 -19.5 0 0 457.73 441.51
  C 454.61 441.60 451.45 442.20 449.55 438.94
  C 444.55 430.36 454.48 421.98 462.14 421.64
  A 0.55 0.55 0.0 0 1 462.72 422.18"
/>
<path stroke="#808080" vector-effect="non-scaling-stroke" d="
  M 609.17 420.57
  Q 610.93 421.62 612.91 421.52
  Q 625.95 420.83 641.53 421.17
  A 0.67 0.67 0.0 0 0 642.22 420.48
  C 641.95 411.17 640.16 401.90 630.51 397.81
  Q 626.52 396.13 622.18 395.37
  A 1.12 1.11 2.6 0 0 620.88 396.55
  Q 620.95 397.49 621.65 398.11
  C 627.69 403.44 627.90 409.56 628.87 416.93
  A 1.90 1.89 -5.7 0 1 627.12 419.06
  Q 621.25 419.45 615.30 419.47
  C 613.31 419.48 611.26 419.03 609.34 419.49
  A 1.75 1.74 -6.8 0 1 607.20 417.81
  C 607.14 412.94 608.58 404.75 612.14 400.98
  C 613.43 399.61 615.44 398.08 614.88 395.95
  A 0.91 0.91 0.0 0 0 613.58 395.37
  C 610.66 396.86 607.46 397.57 604.73 399.30
  Q 595.17 405.35 593.29 415.88
  C 591.23 427.37 594.96 437.99 604.48 444.67
  Q 610.67 449.01 619.37 448.58
  Q 628.86 448.12 635.78 441.53
  Q 638.82 438.64 640.24 435.26
  Q 640.49 434.66 640.31 434.05
  Q 640.00 433.01 638.44 433.33
  A 1.79 1.77 -77.8 0 0 637.34 434.05
  Q 634.61 437.90 629.87 438.84
  Q 612.44 442.28 607.51 425.23
  Q 606.76 422.63 608.27 420.74
  A 0.70 0.69 -55.4 0 1 609.17 420.57"
/>
<path stroke="#808080" vector-effect="non-scaling-stroke" d="
  M 764.56 400.98
  Q 766.50 403.04 766.45 405.96
  Q 766.23 417.14 766.30 429.96
  C 766.34 436.02 766.58 441.80 771.32 446.18
  C 775.74 450.26 785.63 448.69 790.08 445.61
  Q 791.60 444.56 793.18 443.73
  Q 794.89 442.83 795.39 440.96
  Q 795.49 440.60 795.49 440.25
  Q 795.54 438.14 793.64 439.07
  Q 791.37 440.17 789.34 440.27
  C 781.16 440.70 780.05 435.17 780.12 428.44
  Q 780.29 411.99 780.16 396.46
  A 1.08 1.07 -4.8 0 0 778.91 395.41
  Q 771.07 396.69 761.80 397.16
  Q 760.50 397.23 760.30 398.47
  Q 760.22 398.98 760.68 399.21
  C 761.94 399.85 763.57 399.93 764.56 400.98"
/>
<path stroke="#808080" vector-effect="non-scaling-stroke" d="
  M 838.35 405.73
  C 836.99 403.28 838.95 400.89 840.43 399.08
  Q 844.22 394.44 838.40 395.90
  Q 836.20 396.45 833.05 398.22
  Q 830.44 399.69 829.02 401.65
  C 822.36 410.86 828.90 419.52 836.97 424.41
  Q 842.56 427.80 847.85 431.09
  Q 853.58 434.66 854.12 440.35
  C 854.41 443.39 851.24 444.09 850.27 446.70
  Q 849.96 447.51 850.49 448.18
  A 1.18 1.17 -23.0 0 0 851.59 448.62
  C 856.73 447.94 862.99 444.60 864.69 439.20
  C 866.94 432.06 863.91 424.91 857.87 420.78
  Q 851.84 416.66 844.68 412.20
  Q 840.51 409.60 838.35 405.73"
/>
<path stroke="#808080" vector-effect="non-scaling-stroke" d="
  M 916.42 432.09
  Q 921.79 445.36 935.84 448.42
  Q 936.99 448.67 938.06 448.34
  A 0.99 0.99 0.0 0 0 938.19 446.51
  C 932.49 443.77 931.58 438.40 931.32 432.59
  Q 930.77 420.11 931.52 408.22
  Q 931.99 400.87 937.89 397.58
  Q 938.39 397.30 938.50 396.75
  Q 938.64 396.02 938.02 395.56
  A 1.36 1.35 -34.7 0 0 936.83 395.35
  Q 930.93 397.06 927.86 398.63
  C 916.06 404.62 911.64 420.26 916.42 432.09"
/>
<path stroke="#808080" vector-effect="non-scaling-stroke" d="
  M 965.92 431.82
  C 969.59 422.14 967.34 409.36 959.47 402.08
  C 955.98 398.85 951.68 397.27 947.19 395.75
  Q 946.01 395.35 944.85 395.44
  A 1.14 1.14 0.0 0 0 944.31 397.52
  C 948.25 400.15 950.19 402.69 950.60 407.73
  Q 951.89 423.72 950.52 436.58
  Q 950.26 439.00 949.40 441.47
  C 948.41 444.35 944.45 444.83 943.77 446.83
  A 1.35 1.35 0.0 0 0 945.27 448.59
  Q 960.52 446.07 965.92 431.82"
/>
<path stroke="#808080" vector-effect="non-scaling-stroke" d="
  M 193.86 428.00
  C 199.27 430.97 205.12 434.20 204.94 441.25
  Q 204.91 442.37 204.11 443.17
  Q 202.49 444.77 201.16 446.67
  A 1.22 1.22 0.0 0 0 202.28 448.59
  Q 208.44 447.99 213.08 443.42
  C 215.23 441.29 216.85 437.40 216.71 434.42
  Q 216.48 429.38 212.78 424.41
  Q 210.67 421.58 205.10 418.15
  Q 200.21 415.13 194.99 411.75
  C 191.01 409.17 186.94 404.63 190.68 399.94
  Q 191.34 399.11 192.13 398.27
  Q 195.32 394.89 190.76 395.78
  C 184.83 396.93 179.99 399.94 177.76 406.00
  C 175.84 411.20 179.21 417.58 183.26 420.91
  Q 187.91 424.73 193.86 428.00"
/>
<path stroke="#808080" vector-effect="non-scaling-stroke" d="
  M 351.00 440.07
  C 344.27 441.19 341.93 435.28 341.96 429.68
  Q 342.05 413.82 341.95 396.59
  A 1.10 1.10 0.0 0 0 340.70 395.51
  Q 331.77 396.69 322.74 397.34
  Q 322.03 397.39 322.01 398.28
  A 0.82 0.82 0.0 0 0 322.53 399.06
  C 325.52 400.26 328.35 401.13 328.31 405.02
  Q 328.15 420.09 328.30 433.65
  C 328.37 440.19 331.33 447.68 338.78 448.50
  Q 347.55 449.46 355.09 443.78
  Q 356.87 442.44 357.40 440.38
  A 1.01 1.01 0.0 0 0 356.23 439.13
  Q 353.55 439.64 351.00 440.07"
/>
<path stroke="#808080" vector-effect="non-scaling-stroke" d="
  M 387.49 443.25
  Q 385.58 444.40 384.92 446.67
  A 0.95 0.95 0.0 0 0 385.85 447.88
  Q 395.89 447.64 405.25 447.88
  Q 406.50 447.92 407.55 447.45
  A 0.79 0.78 -39.6 0 0 407.68 446.09
  C 403.02 442.80 403.36 437.85 403.31 432.78
  Q 403.15 414.58 403.48 397.12
  Q 403.51 395.15 401.62 395.70
  Q 393.19 398.11 386.06 399.09
  Q 381.31 399.74 385.14 402.62
  C 387.52 404.41 389.20 405.57 389.23 409.02
  Q 389.36 422.63 389.18 436.79
  Q 389.15 439.59 388.17 442.41
  A 1.62 1.61 -6.2 0 1 387.49 443.25"
/>
<path stroke="#808080" vector-effect="non-scaling-stroke" d="
  M 409.59 404.36
  A 1.82 1.81 68.0 0 1 412.02 405.40
  Q 414.89 413.11 421.88 411.60
  Q 423.80 411.19 425.26 409.79
  C 430.37 404.91 428.23 397.45 421.49 395.75
  C 416.02 394.37 409.59 399.28 406.72 403.62
  Q 406.45 404.02 406.42 404.53
  A 0.77 0.77 0.0 0 0 407.50 405.27
  L 409.59 404.36"
/>
<path stroke="#808080" vector-effect="non-scaling-stroke" d="
  M 513.10 445.75
  C 509.74 443.19 508.97 439.60 508.92 435.45
  Q 508.70 417.20 508.98 399.14
  Q 509.01 397.47 508.45 395.91
  A 0.78 0.77 70.6 0 0 507.48 395.44
  Q 499.43 398.20 490.77 399.22
  Q 490.24 399.28 489.91 399.71
  Q 488.96 400.90 490.86 402.45
  A 2.78 2.67 75.9 0 0 491.42 402.80
  Q 494.63 404.33 494.69 408.56
  Q 494.88 423.66 494.68 438.07
  Q 494.65 440.23 493.93 442.49
  A 1.95 1.86 -11.9 0 1 493.30 443.41
  Q 491.79 444.61 490.87 446.12
  Q 490.53 446.70 490.77 447.32
  A 0.77 0.77 0.0 0 0 491.49 447.81
  Q 502.07 447.74 512.31 447.78
  Q 513.08 447.79 513.43 446.93
  A 1.01 1.00 29.8 0 0 513.10 445.75"
/>
<path stroke="#808080" vector-effect="non-scaling-stroke" d="
  M 521.23 403.85
  C 525.20 405.05 527.26 408.96 527.30 413.00
  Q 527.43 424.77 527.29 436.35
  Q 527.26 438.70 526.72 441.07
  C 526.19 443.37 524.22 444.76 522.87 446.60
  A 0.72 0.72 0.0 0 0 523.45 447.75
  L 544.38 447.86
  A 0.91 0.91 0.0 0 0 545.28 447.16
  Q 545.40 446.65 545.11 446.19
  C 543.58 443.73 541.44 441.77 541.42 438.62
  Q 541.35 425.28 541.22 409.78
  C 541.12 397.17 531.30 392.70 520.44 397.12
  C 517.58 398.28 514.60 399.82 513.09 402.68
  A 0.98 0.98 0.0 0 0 514.08 404.11
  C 516.44 403.82 518.88 403.13 521.23 403.85"
/>
<path stroke="#808080" vector-effect="non-scaling-stroke" d="
  M 813.78 441.35
  Q 813.25 440.02 813.24 438.68
  Q 813.05 417.06 813.11 396.26
  A 0.76 0.76 0.0 0 0 812.25 395.50
  Q 803.40 396.67 795.16 397.34
  Q 794.54 397.39 794.11 397.88
  A 0.77 0.77 0.0 0 0 794.31 399.07
  C 797.34 400.74 799.43 401.16 799.39 405.32
  Q 799.17 426.01 799.32 446.72
  A 1.78 1.77 7.6 0 0 800.62 448.41
  Q 801.68 448.70 802.98 448.46
  Q 810.12 447.13 816.89 446.25
  Q 819.52 445.91 817.68 444.01
  Q 816.84 443.14 815.57 442.87
  Q 814.27 442.59 813.78 441.35"
/>
<path stroke="#808080" vector-effect="non-scaling-stroke" d="
  M 848.06 397.75
  C 855.63 399.79 858.26 404.30 861.43 410.75
  Q 861.83 411.57 862.80 410.97
  A 1.10 1.08 -17.1 0 0 863.30 410.04
  L 863.03 400.07
  A 1.93 1.93 0.0 0 0 861.81 398.32
  Q 856.39 396.13 850.03 395.45
  Q 848.94 395.34 847.98 395.68
  A 1.09 1.08 -47.3 0 0 848.06 397.75"
/>
<path stroke="#808080" vector-effect="non-scaling-stroke" d="
  M 995.74 404.83
  C 994.69 402.55 995.62 400.18 997.24 398.49
  Q 999.88 395.72 996.07 396.07
  Q 985.04 397.08 973.96 395.99
  A 1.04 1.03 85.5 0 0 972.86 397.28
  Q 973.10 398.23 974.01 398.58
  Q 978.33 400.24 980.14 404.41
  C 984.35 414.09 989.09 423.29 993.36 432.84
  Q 996.57 440.01 999.98 446.67
  Q 1002.26 451.12 1003.66 446.32
  Q 1005.19 441.05 1007.79 435.51
  C 1008.33 434.35 1008.61 432.43 1008.07 431.28
  Q 1002.24 418.85 995.74 404.83"
/>
<path stroke="#808080" vector-effect="non-scaling-stroke" d="
  M 1015.43 404.20
  Q 1015.45 408.54 1014.09 413.57
  A 1.16 1.14 42.4 0 0 1014.13 414.32
  Q 1014.86 416.11 1016.16 414.58
  A 1.74 1.68 77.7 0 0 1016.42 414.16
  C 1018.98 407.93 1022.07 400.49 1029.15 398.60
  Q 1030.08 398.35 1029.95 397.40
  L 1029.89 396.94
  Q 1029.76 395.89 1028.71 396.02
  Q 1020.11 397.14 1009.94 396.02
  Q 1008.58 395.87 1008.85 397.50
  A 1.49 1.48 -85.0 0 0 1009.83 398.67
  C 1012.39 399.55 1015.42 401.04 1015.43 404.20"
/>
<path stroke="#808080" vector-effect="non-scaling-stroke" d="
  M 277.34 400.93
  L 276.98 399.86
  Q 276.75 399.19 276.16 399.57
  C 272.73 401.78 269.35 405.55 270.02 409.84
  C 270.67 414.08 275.85 416.86 279.48 413.96
  Q 283.71 410.59 281.39 405.84
  C 280.57 404.18 279.10 403.00 277.82 401.71
  A 2.03 1.96 -77.6 0 1 277.34 400.93"
/>
<path stroke="#808080" vector-effect="non-scaling-stroke" d="
  M 443.79 399.53
  C 439.34 403.18 434.76 409.74 441.00 414.13
  Q 443.18 415.66 445.78 414.80
  Q 451.39 412.95 450.22 407.22
  C 449.74 404.84 447.34 403.32 445.65 401.71
  A 2.32 2.21 -79.4 0 1 445.11 400.88
  L 444.69 399.77
  A 0.57 0.57 0.0 0 0 443.79 399.53"
/>
<path stroke="#808080" vector-effect="non-scaling-stroke" d="
  M 750.33 421.34
  Q 751.21 419.37 753.55 419.06
  A 1.55 1.55 0.0 0 0 754.90 417.56
  L 754.90 417.23
  Q 754.93 415.97 753.68 416.11
  C 752.17 416.29 750.77 416.79 749.21 416.73
  Q 742.49 416.46 735.76 416.68
  C 732.34 416.79 728.98 416.25 725.52 416.24
  A 1.07 1.07 0.0 0 0 724.68 416.65
  Q 724.18 417.31 724.44 418.00
  A 0.78 0.78 0.0 0 0 725.10 418.49
  C 730.96 419.05 732.97 421.27 733.53 427.05
  Q 734.35 435.54 733.01 441.62
  C 732.30 444.81 727.07 446.24 724.42 446.23
  A 1.52 1.50 -59.5 0 0 723.67 446.43
  Q 722.59 447.06 722.74 447.67
  Q 723.01 448.75 724.12 448.72
  Q 733.39 448.47 745.49 444.77
  Q 746.77 444.38 747.85 443.55
  Q 748.25 443.25 748.24 442.75
  C 748.10 435.93 747.61 427.46 750.33 421.34"
/>
<path stroke="#808080" vector-effect="non-scaling-stroke" d="
  M 182.60 435.44
  Q 181.55 432.76 180.49 430.19
  Q 180.00 429.01 178.71 429.73
  A 1.40 1.39 72.5 0 0 177.99 431.12
  Q 178.56 436.26 178.26 440.72
  C 178.16 442.21 178.77 443.79 180.11 444.52
  Q 186.14 447.81 193.80 448.89
  Q 194.93 449.05 195.24 447.97
  Q 195.32 447.72 195.27 447.47
  Q 195.01 446.11 193.69 445.70
  Q 185.66 443.21 182.60 435.44"
/>
<path stroke="#808080" vector-effect="non-scaling-stroke" d="
  M 843.22 445.89
  C 835.73 443.92 831.86 438.01 830.02 430.59
  Q 829.65 429.07 827.97 429.70
  A 1.47 1.47 0.0 0 0 827.02 431.12
  Q 827.15 436.35 827.14 441.46
  C 827.13 446.21 840.05 448.53 843.60 448.79
  A 1.06 1.05 -2.1 0 0 844.73 447.58
  Q 844.53 446.24 843.22 445.89"
/>
</g>
<path fill="#ffffff" d="
  M 0.00 0.00
  L 1166.00 0.00
  L 1166.00 512.00
  L 0.00 512.00
  L 0.00 0.00
  Z
  M 742.87 62.81
  Q 723.03 54.18 700.84 51.91
  Q 690.02 50.80 677.38 50.50
  Q 675.01 50.45 674.97 52.82
  L 674.96 53.49
  Q 674.90 56.54 677.91 56.98
  Q 682.47 57.66 687.56 58.68
  C 720.35 65.25 732.14 94.42 738.31 123.36
  Q 738.68 125.12 739.44 126.74
  A 1.24 1.23 77.7 0 0 740.54 127.45
  L 749.04 127.63
  Q 751.08 127.67 751.15 125.64
  Q 752.05 97.96 753.71 70.17
  A 1.73 1.73 0.0 0 0 753.00 68.66
  Q 748.22 65.14 742.87 62.81
  Z
  M 612.95 287.36
  Q 617.83 289.66 622.98 291.27
  Q 637.82 295.90 653.32 297.59
  Q 654.91 297.76 654.90 296.17
  L 654.89 292.86
  Q 654.88 291.53 653.59 291.25
  C 647.81 289.98 642.35 288.64 637.25 285.22
  C 628.64 279.45 622.86 271.72 618.85 261.75
  C 613.57 248.63 611.46 235.98 609.82 222.00
  Q 608.28 208.94 608.02 199.23
  Q 607.41 176.39 607.96 149.19
  C 608.17 138.70 609.60 128.37 610.82 117.89
  Q 611.49 112.10 612.78 105.97
  C 617.58 83.10 626.85 61.93 652.49 57.47
  Q 654.32 57.15 654.45 55.29
  L 654.61 52.85
  Q 654.73 51.02 652.90 51.08
  Q 645.46 51.34 640.76 52.21
  C 615.63 56.89 591.73 69.60 574.85 88.86
  Q 558.57 107.43 551.36 129.73
  C 549.58 135.23 547.68 141.13 546.61 146.94
  Q 539.46 185.68 552.23 221.15
  Q 568.55 266.45 612.95 287.36
  Z
  M 386.64 292.42
  Q 386.69 290.09 384.63 289.45
  C 381.54 288.50 378.55 288.44 375.69 286.63
  Q 366.07 280.54 362.97 270.04
  Q 360.82 262.79 360.81 254.42
  Q 360.69 156.79 360.82 54.84
  Q 360.82 53.31 359.30 53.32
  L 287.23 53.38
  Q 285.34 53.38 285.27 55.27
  L 285.20 57.16
  Q 285.13 59.10 287.06 59.31
  C 295.20 60.15 301.87 62.77 306.08 70.39
  Q 309.37 76.35 309.93 81.15
  C 310.31 84.50 310.50 87.99 310.51 91.34
  Q 310.55 173.67 310.45 256.00
  Q 310.44 268.57 304.45 278.56
  Q 300.50 285.16 293.19 287.93
  C 291.10 288.73 288.79 288.95 286.62 289.60
  Q 285.49 289.94 285.28 291.11
  Q 284.55 295.17 288.74 295.16
  C 319.48 295.06 350.77 295.26 382.02 295.13
  C 384.33 295.12 386.58 295.41 386.64 292.42
  Z
  M 426.61 180.31
  Q 426.54 180.08 426.78 180.07
  Q 442.59 178.73 457.60 171.81
  Q 470.21 165.99 478.11 155.40
  C 486.66 143.92 489.56 126.87 488.28 111.89
  Q 487.41 101.61 483.48 92.03
  C 475.96 73.67 458.00 63.50 438.59 59.18
  Q 422.74 55.66 411.48 54.79
  Q 397.23 53.70 383.95 53.23
  Q 381.54 53.14 381.51 55.54
  L 381.49 57.03
  Q 381.46 59.28 383.71 59.39
  Q 397.27 60.08 405.93 62.91
  Q 420.22 67.59 426.46 83.13
  Q 429.16 89.83 430.13 95.69
  Q 433.99 118.92 429.90 143.61
  Q 428.24 153.66 421.97 163.63
  C 416.98 171.57 406.67 176.17 397.89 177.62
  Q 391.55 178.66 384.20 178.97
  Q 381.77 179.08 381.79 181.36
  C 381.81 183.31 381.52 185.54 383.98 186.14
  Q 396.73 189.28 404.95 196.64
  C 412.48 203.37 417.35 212.04 420.20 221.18
  Q 426.99 242.97 433.21 262.76
  C 435.48 269.97 438.38 276.89 442.53 283.25
  Q 446.57 289.44 453.56 291.61
  Q 461.82 294.17 472.69 294.61
  Q 500.82 295.75 526.77 295.07
  Q 528.04 295.03 528.33 293.80
  C 528.69 292.29 528.60 289.61 526.73 289.23
  Q 510.00 285.81 498.86 274.77
  C 490.25 266.23 487.91 254.86 484.45 243.73
  Q 479.75 228.57 471.85 214.46
  Q 463.88 200.23 453.07 191.25
  Q 441.65 181.75 427.43 181.16
  A 0.81 0.79 82.2 0 1 426.70 180.59
  L 426.61 180.31
  Z
  M 678.53 298.17
  Q 697.50 296.69 709.58 294.89
  Q 719.32 293.44 729.09 291.38
  Q 740.44 288.99 753.51 284.65
  Q 755.18 284.10 755.19 282.47
  Q 755.39 258.17 756.65 241.02
  C 757.42 230.43 758.04 221.89 761.84 213.45
  C 764.99 206.43 771.15 205.26 777.94 204.83
  Q 779.61 204.72 779.55 203.05
  L 779.45 200.54
  Q 779.39 198.94 777.79 198.94
  L 683.68 199.00
  Q 681.56 199.00 681.56 201.11
  L 681.55 203.10
  Q 681.54 204.97 683.41 204.94
  C 693.84 204.80 702.40 206.08 706.65 216.59
  C 710.48 226.08 710.81 235.71 711.00 246.00
  Q 711.22 257.01 710.66 266.98
  C 710.07 277.57 705.37 286.65 694.42 289.39
  Q 685.68 291.58 678.41 291.52
  Q 676.10 291.50 676.13 293.81
  L 676.16 296.02
  Q 676.20 298.35 678.53 298.17
  Z
  M 775.87 321.52
  A 1.68 1.68 0.0 0 0 774.19 319.84
  L 285.03 319.84
  A 1.68 1.68 0.0 0 0 283.35 321.52
  L 283.35 328.56
  A 1.68 1.68 0.0 0 0 285.03 330.24
  L 774.19 330.24
  A 1.68 1.68 0.0 0 0 775.87 328.56
  L 775.87 321.52
  Z
  M 680.13 406.82
  C 679.28 428.26 692.13 444.60 713.25 448.53
  A 1.21 1.18 41.2 0 0 713.80 448.50
  Q 715.75 447.88 714.32 446.23
  A 1.26 1.24 -12.5 0 0 713.73 445.86
  Q 705.75 443.56 703.12 434.51
  Q 701.31 428.26 700.91 422.51
  Q 699.91 407.82 701.07 393.13
  C 701.74 384.55 704.11 373.68 713.89 371.33
  A 1.29 1.28 -16.0 0 0 714.81 369.68
  L 714.73 369.43
  A 1.01 1.00 -13.9 0 0 713.61 368.76
  C 693.20 372.24 680.94 386.70 680.13 406.82
  Z
  M 732.94 374.19
  C 738.54 378.53 741.08 384.55 742.21 391.57
  Q 742.52 393.52 744.48 393.31
  L 744.99 393.26
  Q 746.89 393.06 746.84 391.15
  Q 746.65 383.87 747.50 377.18
  C 747.71 375.56 747.07 374.17 745.57 373.46
  Q 735.95 368.87 723.54 368.74
  Q 722.96 368.74 722.60 369.19
  Q 722.19 369.70 722.38 370.32
  A 1.10 1.10 0.0 0 0 723.26 371.09
  C 726.69 371.64 730.12 372.00 732.94 374.19
  Z
  M 82.18 410.12
  C 84.71 408.98 87.43 409.07 89.92 407.88
  C 98.28 403.91 101.52 394.58 99.41 385.80
  Q 96.89 375.27 86.16 372.16
  Q 77.97 369.79 66.69 369.38
  Q 66.13 369.36 65.92 369.88
  Q 65.79 370.20 65.79 370.55
  Q 65.80 371.50 66.74 371.66
  Q 67.90 371.86 69.51 371.94
  C 82.93 372.54 82.43 389.02 81.17 398.18
  C 80.18 405.33 75.21 410.13 67.65 409.51
  Q 66.98 409.46 66.39 409.70
  Q 65.45 410.08 65.63 411.15
  A 1.41 1.40 3.4 0 0 66.61 412.25
  Q 74.09 414.48 77.30 422.38
  Q 79.62 428.09 81.77 436.02
  C 82.88 440.12 85.12 445.41 89.48 446.71
  Q 92.29 447.56 94.92 447.64
  Q 102.62 447.89 112.06 447.77
  A 0.95 0.95 0.0 0 0 112.90 446.40
  Q 112.45 445.49 111.46 445.30
  C 104.54 443.98 101.36 439.89 99.41 433.56
  C 97.44 427.13 94.88 421.45 90.69 416.07
  C 88.30 413.00 85.77 412.17 82.26 411.19
  Q 80.76 410.77 82.18 410.12
  Z
  M 42.45 433.99
  C 42.43 436.33 41.77 442.07 39.36 443.55
  Q 37.61 444.64 35.64 445.55
  Q 34.46 446.10 34.65 447.28
  A 0.66 0.65 -4.0 0 0 35.30 447.84
  Q 50.58 447.68 65.47 447.81
  Q 66.15 447.82 66.72 447.48
  A 0.79 0.79 0.0 0 0 66.62 446.07
  Q 63.78 444.90 61.95 443.34
  C 59.46 441.23 58.73 436.27 58.72 433.22
  Q 58.60 398.69 58.72 370.58
  A 0.96 0.95 -0.9 0 0 57.72 369.62
  Q 46.72 370.05 36.48 369.43
  A 1.57 1.47 -53.6 0 0 35.78 369.56
  Q 33.52 370.54 35.71 371.74
  A 1.05 1.03 63.9 0 0 36.05 371.86
  C 41.78 372.95 42.39 377.50 42.43 382.32
  Q 42.63 407.99 42.45 433.99
  Z
  M 572.64 397.84
  Q 577.17 398.59 582.10 398.54
  Q 583.19 398.53 583.16 397.45
  L 583.15 397.02
  Q 583.13 396.11 582.21 396.11
  Q 577.10 396.11 572.57 396.66
  A 1.86 1.86 0.0 0 1 570.49 394.80
  L 570.56 380.48
  A 1.11 1.10 85.0 0 0 569.27 379.39
  L 558.03 381.39
  A 1.85 1.84 85.0 0 0 556.51 383.21
  L 556.52 394.73
  A 1.60 1.59 -1.9 0 1 555.03 396.32
  Q 553.74 396.40 552.38 396.62
  Q 551.48 396.77 551.49 397.72
  A 0.55 0.55 0.0 0 0 551.96 398.25
  L 555.35 398.75
  A 1.46 1.45 -85.6 0 1 556.58 400.19
  Q 556.49 415.83 556.56 431.19
  C 556.60 437.89 557.82 445.99 564.78 447.93
  C 573.96 450.49 581.35 446.23 586.80 438.98
  Q 587.21 438.44 586.55 437.83
  A 0.92 0.91 55.3 0 0 585.58 437.65
  Q 583.48 438.52 581.86 439.56
  C 578.96 441.43 575.38 440.90 572.94 438.47
  C 570.79 436.33 570.54 433.26 570.53 430.40
  Q 570.46 415.86 570.61 399.55
  A 1.74 1.74 0.0 0 1 572.64 397.84
  Z
  M 892.85 398.12
  L 902.90 398.43
  Q 904.27 398.48 904.20 397.10
  L 904.19 396.83
  A 0.83 0.83 0.0 0 0 903.34 396.04
  L 893.16 396.34
  A 1.21 1.20 -0.9 0 1 891.91 395.14
  L 891.82 380.35
  A 1.03 1.03 0.0 0 0 890.60 379.35
  L 879.48 381.47
  A 1.91 1.90 -7.5 0 0 877.94 383.47
  Q 878.27 388.48 877.88 394.05
  Q 877.64 397.43 874.81 396.62
  A 1.33 1.33 0.0 0 0 873.51 396.96
  Q 873.37 397.10 873.30 397.30
  Q 873.03 398.18 873.93 398.40
  Q 874.70 398.58 875.47 398.36
  A 2.04 2.04 0.0 0 1 878.05 400.33
  Q 878.08 415.49 878.06 432.50
  C 878.06 437.75 879.94 446.18 885.80 447.81
  Q 896.77 450.88 904.63 443.02
  Q 906.45 441.20 908.27 439.33
  Q 908.95 438.64 908.35 437.87
  A 0.88 0.88 0.0 0 0 907.26 437.64
  C 903.79 439.42 900.15 441.76 896.19 439.85
  C 893.25 438.43 892.07 434.73 892.02 431.64
  Q 891.72 415.58 892.00 398.93
  Q 892.01 398.10 892.85 398.12
  Z
  M 243.76 396.06
  Q 243.08 394.94 243.06 393.49
  Q 242.95 386.69 243.15 380.36
  A 0.92 0.91 85.9 0 0 242.08 379.43
  L 230.48 381.43
  A 1.50 1.49 -4.1 0 0 229.24 382.85
  Q 229.06 387.77 229.18 392.60
  Q 229.23 394.59 228.25 396.06
  Q 227.93 396.55 227.34 396.53
  L 225.29 396.47
  Q 224.59 396.45 224.35 397.12
  Q 224.23 397.48 224.25 397.84
  Q 224.29 398.52 224.97 398.49
  L 227.19 398.39
  A 1.92 1.92 0.0 0 1 229.20 400.33
  Q 229.09 417.86 229.26 433.20
  Q 229.32 438.33 231.10 442.27
  C 233.57 447.76 238.29 448.86 243.79 448.62
  C 249.73 448.37 254.65 444.60 258.58 440.26
  A 2.06 2.04 51.0 0 0 258.82 437.84
  Q 258.41 437.14 256.47 438.30
  A 1.94 1.14 -3.9 0 0 256.25 438.45
  C 251.01 442.79 243.57 440.51 243.31 432.91
  Q 242.88 419.89 243.19 399.84
  A 1.74 1.73 -87.9 0 1 245.02 398.13
  L 254.18 398.66
  Q 255.10 398.71 255.20 397.79
  L 255.25 397.35
  Q 255.39 396.06 254.10 396.11
  L 244.55 396.49
  Q 244.03 396.51 243.76 396.06
  Z
  M 132.80 419.16
  A 0.90 0.89 4.4 0 1 131.96 418.19
  Q 132.38 413.37 133.63 408.06
  C 134.67 403.61 136.56 401.31 139.68 398.42
  Q 140.82 397.36 140.37 395.95
  A 0.94 0.93 71.7 0 0 139.17 395.34
  C 131.05 398.14 124.55 401.08 120.66 409.23
  C 114.85 421.44 117.91 435.90 128.69 443.98
  Q 133.63 447.68 138.68 448.31
  C 148.14 449.50 157.01 446.73 162.99 439.21
  Q 164.82 436.92 164.91 434.32
  Q 164.94 433.36 163.97 433.21
  Q 163.43 433.13 163.08 433.54
  Q 157.10 440.54 147.81 439.32
  C 145.24 438.98 143.09 438.76 140.80 437.25
  Q 132.95 432.09 132.18 422.34
  A 1.10 1.10 0.0 0 1 133.39 421.15
  Q 135.63 421.40 137.56 421.36
  Q 150.44 421.10 166.14 421.08
  Q 167.55 421.08 167.48 419.67
  C 167.11 412.84 165.56 405.65 160.48 400.93
  C 157.01 397.71 151.91 396.30 147.38 395.28
  Q 146.30 395.04 145.82 396.05
  A 1.16 1.16 0.0 0 0 146.14 397.47
  C 152.27 402.39 153.63 410.02 153.82 417.45
  A 1.56 1.56 0.0 0 1 152.38 419.05
  Q 142.42 419.74 132.80 419.16
  Z
  M 203.81 399.69
  C 208.46 402.13 209.99 405.61 211.73 410.11
  Q 212.11 411.08 213.22 411.15
  A 0.80 0.80 0.0 0 0 214.08 410.36
  L 214.20 400.09
  A 1.97 1.96 -80.2 0 0 212.87 398.20
  Q 207.14 396.23 200.89 395.35
  Q 199.85 395.21 199.04 395.80
  A 1.10 1.10 0.0 0 0 199.32 397.72
  Q 201.63 398.55 203.81 399.69
  Z
  M 293.96 421.81
  Q 294.43 422.78 294.44 423.91
  Q 294.48 430.47 294.48 437.13
  Q 294.49 446.57 302.81 448.23
  Q 312.49 450.15 318.43 442.04
  Q 318.98 441.28 318.40 440.53
  A 0.96 0.96 0.0 0 0 317.15 440.29
  Q 315.26 441.39 313.16 441.58
  A 2.88 2.87 -16.0 0 1 310.35 440.03
  C 309.22 437.82 308.47 435.46 308.48 432.94
  Q 308.52 424.75 308.50 416.12
  C 308.48 407.47 305.60 398.68 296.51 396.37
  C 292.92 395.46 285.57 394.23 282.25 396.64
  A 0.65 0.65 0.0 0 0 282.49 397.80
  C 284.61 398.29 286.80 398.04 288.76 399.13
  Q 292.51 401.23 293.52 405.38
  Q 294.83 410.81 294.38 417.91
  A 1.79 1.78 -4.3 0 1 292.96 419.55
  Q 285.64 421.08 277.90 423.54
  C 270.71 425.83 265.12 429.58 265.70 438.17
  C 266.06 443.47 270.85 447.83 275.95 448.44
  Q 282.76 449.25 289.26 445.53
  Q 290.84 444.62 290.79 442.91
  A 1.29 1.28 89.5 0 0 289.53 441.66
  Q 286.99 441.62 284.56 441.36
  C 280.23 440.89 279.66 434.93 280.35 431.65
  C 281.48 426.33 288.52 422.28 293.04 421.36
  A 0.85 0.85 0.0 0 1 293.96 421.81
  Z
  M 360.34 401.49
  Q 361.18 403.17 361.19 404.94
  Q 361.32 426.14 361.13 446.75
  A 1.71 1.70 -85.5 0 0 362.58 448.45
  Q 364.03 448.67 365.54 448.38
  Q 372.43 447.07 378.51 446.38
  Q 380.08 446.20 380.41 444.78
  A 1.16 1.16 0.0 0 0 379.42 443.37
  C 374.08 442.70 374.84 438.02 374.83 434.26
  Q 374.79 415.21 374.74 396.53
  A 1.14 1.13 -5.3 0 0 373.39 395.42
  Q 365.98 396.81 357.44 397.04
  Q 356.91 397.05 356.48 397.39
  Q 355.94 397.83 356.13 398.50
  Q 356.27 398.97 356.71 399.18
  C 358.01 399.80 359.63 400.09 360.34 401.49
  Z
  M 462.72 422.18
  Q 462.81 428.20 462.70 434.60
  Q 462.63 439.02 463.69 442.37
  C 465.78 448.99 473.95 449.43 479.66 447.63
  C 481.79 446.96 486.64 443.56 486.70 441.01
  A 0.85 0.84 -12.9 0 0 485.47 440.24
  Q 483.40 441.28 481.20 441.59
  C 477.91 442.07 476.74 436.10 476.73 433.89
  Q 476.70 426.24 476.77 418.67
  C 476.84 410.85 475.24 400.23 467.04 397.18
  Q 460.15 394.62 452.73 395.56
  Q 451.42 395.73 450.50 396.72
  Q 450.38 396.86 450.33 397.04
  Q 450.02 398.13 451.15 398.09
  Q 460.05 397.79 461.83 406.08
  Q 462.95 411.25 462.74 417.68
  Q 462.70 418.88 461.54 419.20
  Q 454.43 421.19 447.73 422.98
  Q 442.11 424.49 437.91 427.70
  C 433.60 431.01 432.48 437.90 435.09 442.40
  C 440.05 450.95 450.95 449.53 458.39 444.85
  C 459.42 444.20 459.48 442.91 458.79 442.01
  A 1.29 1.28 -19.5 0 0 457.73 441.51
  C 454.61 441.60 451.45 442.20 449.55 438.94
  C 444.55 430.36 454.48 421.98 462.14 421.64
  A 0.55 0.55 0.0 0 1 462.72 422.18
  Z
  M 609.17 420.57
  Q 610.93 421.62 612.91 421.52
  Q 625.95 420.83 641.53 421.17
  A 0.67 0.67 0.0 0 0 642.22 420.48
  C 641.95 411.17 640.16 401.90 630.51 397.81
  Q 626.52 396.13 622.18 395.37
  A 1.12 1.11 2.6 0 0 620.88 396.55
  Q 620.95 397.49 621.65 398.11
  C 627.69 403.44 627.90 409.56 628.87 416.93
  A 1.90 1.89 -5.7 0 1 627.12 419.06
  Q 621.25 419.45 615.30 419.47
  C 613.31 419.48 611.26 419.03 609.34 419.49
  A 1.75 1.74 -6.8 0 1 607.20 417.81
  C 607.14 412.94 608.58 404.75 612.14 400.98
  C 613.43 399.61 615.44 398.08 614.88 395.95
  A 0.91 0.91 0.0 0 0 613.58 395.37
  C 610.66 396.86 607.46 397.57 604.73 399.30
  Q 595.17 405.35 593.29 415.88
  C 591.23 427.37 594.96 437.99 604.48 444.67
  Q 610.67 449.01 619.37 448.58
  Q 628.86 448.12 635.78 441.53
  Q 638.82 438.64 640.24 435.26
  Q 640.49 434.66 640.31 434.05
  Q 640.00 433.01 638.44 433.33
  A 1.79 1.77 -77.8 0 0 637.34 434.05
  Q 634.61 437.90 629.87 438.84
  Q 612.44 442.28 607.51 425.23
  Q 606.76 422.63 608.27 420.74
  A 0.70 0.69 -55.4 0 1 609.17 420.57
  Z
  M 764.56 400.98
  Q 766.50 403.04 766.45 405.96
  Q 766.23 417.14 766.30 429.96
  C 766.34 436.02 766.58 441.80 771.32 446.18
  C 775.74 450.26 785.63 448.69 790.08 445.61
  Q 791.60 444.56 793.18 443.73
  Q 794.89 442.83 795.39 440.96
  Q 795.49 440.60 795.49 440.25
  Q 795.54 438.14 793.64 439.07
  Q 791.37 440.17 789.34 440.27
  C 781.16 440.70 780.05 435.17 780.12 428.44
  Q 780.29 411.99 780.16 396.46
  A 1.08 1.07 -4.8 0 0 778.91 395.41
  Q 771.07 396.69 761.80 397.16
  Q 760.50 397.23 760.30 398.47
  Q 760.22 398.98 760.68 399.21
  C 761.94 399.85 763.57 399.93 764.56 400.98
  Z
  M 838.35 405.73
  C 836.99 403.28 838.95 400.89 840.43 399.08
  Q 844.22 394.44 838.40 395.90
  Q 836.20 396.45 833.05 398.22
  Q 830.44 399.69 829.02 401.65
  C 822.36 410.86 828.90 419.52 836.97 424.41
  Q 842.56 427.80 847.85 431.09
  Q 853.58 434.66 854.12 440.35
  C 854.41 443.39 851.24 444.09 850.27 446.70
  Q 849.96 447.51 850.49 448.18
  A 1.18 1.17 -23.0 0 0 851.59 448.62
  C 856.73 447.94 862.99 444.60 864.69 439.20
  C 866.94 432.06 863.91 424.91 857.87 420.78
  Q 851.84 416.66 844.68 412.20
  Q 840.51 409.60 838.35 405.73
  Z
  M 916.42 432.09
  Q 921.79 445.36 935.84 448.42
  Q 936.99 448.67 938.06 448.34
  A 0.99 0.99 0.0 0 0 938.19 446.51
  C 932.49 443.77 931.58 438.40 931.32 432.59
  Q 930.77 420.11 931.52 408.22
  Q 931.99 400.87 937.89 397.58
  Q 938.39 397.30 938.50 396.75
  Q 938.64 396.02 938.02 395.56
  A 1.36 1.35 -34.7 0 0 936.83 395.35
  Q 930.93 397.06 927.86 398.63
  C 916.06 404.62 911.64 420.26 916.42 432.09
  Z
  M 965.92 431.82
  C 969.59 422.14 967.34 409.36 959.47 402.08
  C 955.98 398.85 951.68 397.27 947.19 395.75
  Q 946.01 395.35 944.85 395.44
  A 1.14 1.14 0.0 0 0 944.31 397.52
  C 948.25 400.15 950.19 402.69 950.60 407.73
  Q 951.89 423.72 950.52 436.58
  Q 950.26 439.00 949.40 441.47
  C 948.41 444.35 944.45 444.83 943.77 446.83
  A 1.35 1.35 0.0 0 0 945.27 448.59
  Q 960.52 446.07 965.92 431.82
  Z
  M 193.86 428.00
  C 199.27 430.97 205.12 434.20 204.94 441.25
  Q 204.91 442.37 204.11 443.17
  Q 202.49 444.77 201.16 446.67
  A 1.22 1.22 0.0 0 0 202.28 448.59
  Q 208.44 447.99 213.08 443.42
  C 215.23 441.29 216.85 437.40 216.71 434.42
  Q 216.48 429.38 212.78 424.41
  Q 210.67 421.58 205.10 418.15
  Q 200.21 415.13 194.99 411.75
  C 191.01 409.17 186.94 404.63 190.68 399.94
  Q 191.34 399.11 192.13 398.27
  Q 195.32 394.89 190.76 395.78
  C 184.83 396.93 179.99 399.94 177.76 406.00
  C 175.84 411.20 179.21 417.58 183.26 420.91
  Q 187.91 424.73 193.86 428.00
  Z
  M 351.00 440.07
  C 344.27 441.19 341.93 435.28 341.96 429.68
  Q 342.05 413.82 341.95 396.59
  A 1.10 1.10 0.0 0 0 340.70 395.51
  Q 331.77 396.69 322.74 397.34
  Q 322.03 397.39 322.01 398.28
  A 0.82 0.82 0.0 0 0 322.53 399.06
  C 325.52 400.26 328.35 401.13 328.31 405.02
  Q 328.15 420.09 328.30 433.65
  C 328.37 440.19 331.33 447.68 338.78 448.50
  Q 347.55 449.46 355.09 443.78
  Q 356.87 442.44 357.40 440.38
  A 1.01 1.01 0.0 0 0 356.23 439.13
  Q 353.55 439.64 351.00 440.07
  Z
  M 387.49 443.25
  Q 385.58 444.40 384.92 446.67
  A 0.95 0.95 0.0 0 0 385.85 447.88
  Q 395.89 447.64 405.25 447.88
  Q 406.50 447.92 407.55 447.45
  A 0.79 0.78 -39.6 0 0 407.68 446.09
  C 403.02 442.80 403.36 437.85 403.31 432.78
  Q 403.15 414.58 403.48 397.12
  Q 403.51 395.15 401.62 395.70
  Q 393.19 398.11 386.06 399.09
  Q 381.31 399.74 385.14 402.62
  C 387.52 404.41 389.20 405.57 389.23 409.02
  Q 389.36 422.63 389.18 436.79
  Q 389.15 439.59 388.17 442.41
  A 1.62 1.61 -6.2 0 1 387.49 443.25
  Z
  M 409.59 404.36
  A 1.82 1.81 68.0 0 1 412.02 405.40
  Q 414.89 413.11 421.88 411.60
  Q 423.80 411.19 425.26 409.79
  C 430.37 404.91 428.23 397.45 421.49 395.75
  C 416.02 394.37 409.59 399.28 406.72 403.62
  Q 406.45 404.02 406.42 404.53
  A 0.77 0.77 0.0 0 0 407.50 405.27
  L 409.59 404.36
  Z
  M 513.10 445.75
  C 509.74 443.19 508.97 439.60 508.92 435.45
  Q 508.70 417.20 508.98 399.14
  Q 509.01 397.47 508.45 395.91
  A 0.78 0.77 70.6 0 0 507.48 395.44
  Q 499.43 398.20 490.77 399.22
  Q 490.24 399.28 489.91 399.71
  Q 488.96 400.90 490.86 402.45
  A 2.78 2.67 75.9 0 0 491.42 402.80
  Q 494.63 404.33 494.69 408.56
  Q 494.88 423.66 494.68 438.07
  Q 494.65 440.23 493.93 442.49
  A 1.95 1.86 -11.9 0 1 493.30 443.41
  Q 491.79 444.61 490.87 446.12
  Q 490.53 446.70 490.77 447.32
  A 0.77 0.77 0.0 0 0 491.49 447.81
  Q 502.07 447.74 512.31 447.78
  Q 513.08 447.79 513.43 446.93
  A 1.01 1.00 29.8 0 0 513.10 445.75
  Z
  M 521.23 403.85
  C 525.20 405.05 527.26 408.96 527.30 413.00
  Q 527.43 424.77 527.29 436.35
  Q 527.26 438.70 526.72 441.07
  C 526.19 443.37 524.22 444.76 522.87 446.60
  A 0.72 0.72 0.0 0 0 523.45 447.75
  L 544.38 447.86
  A 0.91 0.91 0.0 0 0 545.28 447.16
  Q 545.40 446.65 545.11 446.19
  C 543.58 443.73 541.44 441.77 541.42 438.62
  Q 541.35 425.28 541.22 409.78
  C 541.12 397.17 531.30 392.70 520.44 397.12
  C 517.58 398.28 514.60 399.82 513.09 402.68
  A 0.98 0.98 0.0 0 0 514.08 404.11
  C 516.44 403.82 518.88 403.13 521.23 403.85
  Z
  M 813.78 441.35
  Q 813.25 440.02 813.24 438.68
  Q 813.05 417.06 813.11 396.26
  A 0.76 0.76 0.0 0 0 812.25 395.50
  Q 803.40 396.67 795.16 397.34
  Q 794.54 397.39 794.11 397.88
  A 0.77 0.77 0.0 0 0 794.31 399.07
  C 797.34 400.74 799.43 401.16 799.39 405.32
  Q 799.17 426.01 799.32 446.72
  A 1.78 1.77 7.6 0 0 800.62 448.41
  Q 801.68 448.70 802.98 448.46
  Q 810.12 447.13 816.89 446.25
  Q 819.52 445.91 817.68 444.01
  Q 816.84 443.14 815.57 442.87
  Q 814.27 442.59 813.78 441.35
  Z
  M 848.06 397.75
  C 855.63 399.79 858.26 404.30 861.43 410.75
  Q 861.83 411.57 862.80 410.97
  A 1.10 1.08 -17.1 0 0 863.30 410.04
  L 863.03 400.07
  A 1.93 1.93 0.0 0 0 861.81 398.32
  Q 856.39 396.13 850.03 395.45
  Q 848.94 395.34 847.98 395.68
  A 1.09 1.08 -47.3 0 0 848.06 397.75
  Z
  M 995.74 404.83
  C 994.69 402.55 995.62 400.18 997.24 398.49
  Q 999.88 395.72 996.07 396.07
  Q 985.04 397.08 973.96 395.99
  A 1.04 1.03 85.5 0 0 972.86 397.28
  Q 973.10 398.23 974.01 398.58
  Q 978.33 400.24 980.14 404.41
  C 984.35 414.09 989.09 423.29 993.36 432.84
  Q 996.57 440.01 999.98 446.67
  Q 1002.26 451.12 1003.66 446.32
  Q 1005.19 441.05 1007.79 435.51
  C 1008.33 434.35 1008.61 432.43 1008.07 431.28
  Q 1002.24 418.85 995.74 404.83
  Z
  M 1015.43 404.20
  Q 1015.45 408.54 1014.09 413.57
  A 1.16 1.14 42.4 0 0 1014.13 414.32
  Q 1014.86 416.11 1016.16 414.58
  A 1.74 1.68 77.7 0 0 1016.42 414.16
  C 1018.98 407.93 1022.07 400.49 1029.15 398.60
  Q 1030.08 398.35 1029.95 397.40
  L 1029.89 396.94
  Q 1029.76 395.89 1028.71 396.02
  Q 1020.11 397.14 1009.94 396.02
  Q 1008.58 395.87 1008.85 397.50
  A 1.49 1.48 -85.0 0 0 1009.83 398.67
  C 1012.39 399.55 1015.42 401.04 1015.43 404.20
  Z
  M 277.34 400.93
  L 276.98 399.86
  Q 276.75 399.19 276.16 399.57
  C 272.73 401.78 269.35 405.55 270.02 409.84
  C 270.67 414.08 275.85 416.86 279.48 413.96
  Q 283.71 410.59 281.39 405.84
  C 280.57 404.18 279.10 403.00 277.82 401.71
  A 2.03 1.96 -77.6 0 1 277.34 400.93
  Z
  M 443.79 399.53
  C 439.34 403.18 434.76 409.74 441.00 414.13
  Q 443.18 415.66 445.78 414.80
  Q 451.39 412.95 450.22 407.22
  C 449.74 404.84 447.34 403.32 445.65 401.71
  A 2.32 2.21 -79.4 0 1 445.11 400.88
  L 444.69 399.77
  A 0.57 0.57 0.0 0 0 443.79 399.53
  Z
  M 750.33 421.34
  Q 751.21 419.37 753.55 419.06
  A 1.55 1.55 0.0 0 0 754.90 417.56
  L 754.90 417.23
  Q 754.93 415.97 753.68 416.11
  C 752.17 416.29 750.77 416.79 749.21 416.73
  Q 742.49 416.46 735.76 416.68
  C 732.34 416.79 728.98 416.25 725.52 416.24
  A 1.07 1.07 0.0 0 0 724.68 416.65
  Q 724.18 417.31 724.44 418.00
  A 0.78 0.78 0.0 0 0 725.10 418.49
  C 730.96 419.05 732.97 421.27 733.53 427.05
  Q 734.35 435.54 733.01 441.62
  C 732.30 444.81 727.07 446.24 724.42 446.23
  A 1.52 1.50 -59.5 0 0 723.67 446.43
  Q 722.59 447.06 722.74 447.67
  Q 723.01 448.75 724.12 448.72
  Q 733.39 448.47 745.49 444.77
  Q 746.77 444.38 747.85 443.55
  Q 748.25 443.25 748.24 442.75
  C 748.10 435.93 747.61 427.46 750.33 421.34
  Z
  M 182.60 435.44
  Q 181.55 432.76 180.49 430.19
  Q 180.00 429.01 178.71 429.73
  A 1.40 1.39 72.5 0 0 177.99 431.12
  Q 178.56 436.26 178.26 440.72
  C 178.16 442.21 178.77 443.79 180.11 444.52
  Q 186.14 447.81 193.80 448.89
  Q 194.93 449.05 195.24 447.97
  Q 195.32 447.72 195.27 447.47
  Q 195.01 446.11 193.69 445.70
  Q 185.66 443.21 182.60 435.44
  Z
  M 843.22 445.89
  C 835.73 443.92 831.86 438.01 830.02 430.59
  Q 829.65 429.07 827.97 429.70
  A 1.47 1.47 0.0 0 0 827.02 431.12
  Q 827.15 436.35 827.14 441.46
  C 827.13 446.21 840.05 448.53 843.60 448.79
  A 1.06 1.05 -2.1 0 0 844.73 447.58
  Q 844.53 446.24 843.22 445.89
  Z"
/>
<path fill="#525252" d="
  M 742.87 62.81
  Q 748.22 65.14 753.00 68.66
  A 1.73 1.73 0.0 0 1 753.71 70.17
  Q 752.05 97.96 751.15 125.64
  Q 751.08 127.67 749.04 127.63
  L 740.54 127.45
  A 1.24 1.23 77.7 0 1 739.44 126.74
  Q 738.68 125.12 738.31 123.36
  C 732.14 94.42 720.35 65.25 687.56 58.68
  Q 682.47 57.66 677.91 56.98
  Q 674.90 56.54 674.96 53.49
  L 674.97 52.82
  Q 675.01 50.45 677.38 50.50
  Q 690.02 50.80 700.84 51.91
  Q 723.03 54.18 742.87 62.81
  Z"
/>
<path fill="#525252" d="
  M 612.95 287.36
  Q 568.55 266.45 552.23 221.15
  Q 539.46 185.68 546.61 146.94
  C 547.68 141.13 549.58 135.23 551.36 129.73
  Q 558.57 107.43 574.85 88.86
  C 591.73 69.60 615.63 56.89 640.76 52.21
  Q 645.46 51.34 652.90 51.08
  Q 654.73 51.02 654.61 52.85
  L 654.45 55.29
  Q 654.32 57.15 652.49 57.47
  C 626.85 61.93 617.58 83.10 612.78 105.97
  Q 611.49 112.10 610.82 117.89
  C 609.60 128.37 608.17 138.70 607.96 149.19
  Q 607.41 176.39 608.02 199.23
  Q 608.28 208.94 609.82 222.00
  C 611.46 235.98 613.57 248.63 618.85 261.75
  C 622.86 271.72 628.64 279.45 637.25 285.22
  C 642.35 288.64 647.81 289.98 653.59 291.25
  Q 654.88 291.53 654.89 292.86
  L 654.90 296.17
  Q 654.91 297.76 653.32 297.59
  Q 637.82 295.90 622.98 291.27
  Q 617.83 289.66 612.95 287.36
  Z"
/>
<path fill="#525252" d="
  M 386.64 292.42
  C 386.58 295.41 384.33 295.12 382.02 295.13
  C 350.77 295.26 319.48 295.06 288.74 295.16
  Q 284.55 295.17 285.28 291.11
  Q 285.49 289.94 286.62 289.60
  C 288.79 288.95 291.10 288.73 293.19 287.93
  Q 300.50 285.16 304.45 278.56
  Q 310.44 268.57 310.45 256.00
  Q 310.55 173.67 310.51 91.34
  C 310.50 87.99 310.31 84.50 309.93 81.15
  Q 309.37 76.35 306.08 70.39
  C 301.87 62.77 295.20 60.15 287.06 59.31
  Q 285.13 59.10 285.20 57.16
  L 285.27 55.27
  Q 285.34 53.38 287.23 53.38
  L 359.30 53.32
  Q 360.82 53.31 360.82 54.84
  Q 360.69 156.79 360.81 254.42
  Q 360.82 262.79 362.97 270.04
  Q 366.07 280.54 375.69 286.63
  C 378.55 288.44 381.54 288.50 384.63 289.45
  Q 386.69 290.09 386.64 292.42
  Z"
/>
<path fill="#525252" d="
  M 426.61 180.31
  L 426.70 180.59
  A 0.81 0.79 82.2 0 0 427.43 181.16
  Q 441.65 181.75 453.07 191.25
  Q 463.88 200.23 471.85 214.46
  Q 479.75 228.57 484.45 243.73
  C 487.91 254.86 490.25 266.23 498.86 274.77
  Q 510.00 285.81 526.73 289.23
  C 528.60 289.61 528.69 292.29 528.33 293.80
  Q 528.04 295.03 526.77 295.07
  Q 500.82 295.75 472.69 294.61
  Q 461.82 294.17 453.56 291.61
  Q 446.57 289.44 442.53 283.25
  C 438.38 276.89 435.48 269.97 433.21 262.76
  Q 426.99 242.97 420.20 221.18
  C 417.35 212.04 412.48 203.37 404.95 196.64
  Q 396.73 189.28 383.98 186.14
  C 381.52 185.54 381.81 183.31 381.79 181.36
  Q 381.77 179.08 384.20 178.97
  Q 391.55 178.66 397.89 177.62
  C 406.67 176.17 416.98 171.57 421.97 163.63
  Q 428.24 153.66 429.90 143.61
  Q 433.99 118.92 430.13 95.69
  Q 429.16 89.83 426.46 83.13
  Q 420.22 67.59 405.93 62.91
  Q 397.27 60.08 383.71 59.39
  Q 381.46 59.28 381.49 57.03
  L 381.51 55.54
  Q 381.54 53.14 383.95 53.23
  Q 397.23 53.70 411.48 54.79
  Q 422.74 55.66 438.59 59.18
  C 458.00 63.50 475.96 73.67 483.48 92.03
  Q 487.41 101.61 488.28 111.89
  C 489.56 126.87 486.66 143.92 478.11 155.40
  Q 470.21 165.99 457.60 171.81
  Q 442.59 178.73 426.78 180.07
  Q 426.54 180.08 426.61 180.31
  Z"
/>
<path fill="#525252" d="
  M 678.53 298.17
  Q 676.20 298.35 676.16 296.02
  L 676.13 293.81
  Q 676.10 291.50 678.41 291.52
  Q 685.68 291.58 694.42 289.39
  C 705.37 286.65 710.07 277.57 710.66 266.98
  Q 711.22 257.01 711.00 246.00
  C 710.81 235.71 710.48 226.08 706.65 216.59
  C 702.40 206.08 693.84 204.80 683.41 204.94
  Q 681.54 204.97 681.55 203.10
  L 681.56 201.11
  Q 681.56 199.00 683.68 199.00
  L 777.79 198.94
  Q 779.39 198.94 779.45 200.54
  L 779.55 203.05
  Q 779.61 204.72 777.94 204.83
  C 771.15 205.26 764.99 206.43 761.84 213.45
  C 758.04 221.89 757.42 230.43 756.65 241.02
  Q 755.39 258.17 755.19 282.47
  Q 755.18 284.10 753.51 284.65
  Q 740.44 288.99 729.09 291.38
  Q 719.32 293.44 709.58 294.89
  Q 697.50 296.69 678.53 298.17
  Z"
/>
<rect fill="#525252" x="283.35" y="319.84" width="492.52" height="10.40" rx="1.68"/>
<path fill="#010101" d="
  M 713.25 448.53
  C 692.13 444.60 679.28 428.26 680.13 406.82
  C 680.94 386.70 693.20 372.24 713.61 368.76
  A 1.01 1.00 -13.9 0 1 714.73 369.43
  L 714.81 369.68
  A 1.29 1.28 -16.0 0 1 713.89 371.33
  C 704.11 373.68 701.74 384.55 701.07 393.13
  Q 699.91 407.82 700.91 422.51
  Q 701.31 428.26 703.12 434.51
  Q 705.75 443.56 713.73 445.86
  A 1.26 1.24 -12.5 0 1 714.32 446.23
  Q 715.75 447.88 713.80 448.50
  A 1.21 1.18 41.2 0 1 713.25 448.53
  Z"
/>
<path fill="#010101" d="
  M 742.21 391.57
  C 741.08 384.55 738.54 378.53 732.94 374.19
  C 730.12 372.00 726.69 371.64 723.26 371.09
  A 1.10 1.10 0.0 0 1 722.38 370.32
  Q 722.19 369.70 722.60 369.19
  Q 722.96 368.74 723.54 368.74
  Q 735.95 368.87 745.57 373.46
  C 747.07 374.17 747.71 375.56 747.50 377.18
  Q 746.65 383.87 746.84 391.15
  Q 746.89 393.06 744.99 393.26
  L 744.48 393.31
  Q 742.52 393.52 742.21 391.57
  Z"
/>
<path fill="#010101" d="
  M 82.18 410.12
  Q 80.76 410.77 82.26 411.19
  C 85.77 412.17 88.30 413.00 90.69 416.07
  C 94.88 421.45 97.44 427.13 99.41 433.56
  C 101.36 439.89 104.54 443.98 111.46 445.30
  Q 112.45 445.49 112.90 446.40
  A 0.95 0.95 0.0 0 1 112.06 447.77
  Q 102.62 447.89 94.92 447.64
  Q 92.29 447.56 89.48 446.71
  C 85.12 445.41 82.88 440.12 81.77 436.02
  Q 79.62 428.09 77.30 422.38
  Q 74.09 414.48 66.61 412.25
  A 1.41 1.40 3.4 0 1 65.63 411.15
  Q 65.45 410.08 66.39 409.70
  Q 66.98 409.46 67.65 409.51
  C 75.21 410.13 80.18 405.33 81.17 398.18
  C 82.43 389.02 82.93 372.54 69.51 371.94
  Q 67.90 371.86 66.74 371.66
  Q 65.80 371.50 65.79 370.55
  Q 65.79 370.20 65.92 369.88
  Q 66.13 369.36 66.69 369.38
  Q 77.97 369.79 86.16 372.16
  Q 96.89 375.27 99.41 385.80
  C 101.52 394.58 98.28 403.91 89.92 407.88
  C 87.43 409.07 84.71 408.98 82.18 410.12
  Z"
/>
<path fill="#010101" d="
  M 39.36 443.55
  C 41.77 442.07 42.43 436.33 42.45 433.99
  Q 42.63 407.99 42.43 382.32
  C 42.39 377.50 41.78 372.95 36.05 371.86
  A 1.05 1.03 63.9 0 1 35.71 371.74
  Q 33.52 370.54 35.78 369.56
  A 1.57 1.47 -53.6 0 1 36.48 369.43
  Q 46.72 370.05 57.72 369.62
  A 0.96 0.95 -0.9 0 1 58.72 370.58
  Q 58.60 398.69 58.72 433.22
  C 58.73 436.27 59.46 441.23 61.95 443.34
  Q 63.78 444.90 66.62 446.07
  A 0.79 0.79 0.0 0 1 66.72 447.48
  Q 66.15 447.82 65.47 447.81
  Q 50.58 447.68 35.30 447.84
  A 0.66 0.65 -4.0 0 1 34.65 447.28
  Q 34.46 446.10 35.64 445.55
  Q 37.61 444.64 39.36 443.55
  Z"
/>
<path fill="#010101" d="
  M 572.64 397.84
  A 1.74 1.74 0.0 0 0 570.61 399.55
  Q 570.46 415.86 570.53 430.40
  C 570.54 433.26 570.79 436.33 572.94 438.47
  C 575.38 440.90 578.96 441.43 581.86 439.56
  Q 583.48 438.52 585.58 437.65
  A 0.92 0.91 55.3 0 1 586.55 437.83
  Q 587.21 438.44 586.80 438.98
  C 581.35 446.23 573.96 450.49 564.78 447.93
  C 557.82 445.99 556.60 437.89 556.56 431.19
  Q 556.49 415.83 556.58 400.19
  A 1.46 1.45 -85.6 0 0 555.35 398.75
  L 551.96 398.25
  A 0.55 0.55 0.0 0 1 551.49 397.72
  Q 551.48 396.77 552.38 396.62
  Q 553.74 396.40 555.03 396.32
  A 1.60 1.59 -1.9 0 0 556.52 394.73
  L 556.51 383.21
  A 1.85 1.84 85.0 0 1 558.03 381.39
  L 569.27 379.39
  A 1.11 1.10 85.0 0 1 570.56 380.48
  L 570.49 394.80
  A 1.86 1.86 0.0 0 0 572.57 396.66
  Q 577.10 396.11 582.21 396.11
  Q 583.13 396.11 583.15 397.02
  L 583.16 397.45
  Q 583.19 398.53 582.10 398.54
  Q 577.17 398.59 572.64 397.84
  Z"
/>
<path fill="#010101" d="
  M 892.85 398.12
  Q 892.01 398.10 892.00 398.93
  Q 891.72 415.58 892.02 431.64
  C 892.07 434.73 893.25 438.43 896.19 439.85
  C 900.15 441.76 903.79 439.42 907.26 437.64
  A 0.88 0.88 0.0 0 1 908.35 437.87
  Q 908.95 438.64 908.27 439.33
  Q 906.45 441.20 904.63 443.02
  Q 896.77 450.88 885.80 447.81
  C 879.94 446.18 878.06 437.75 878.06 432.50
  Q 878.08 415.49 878.05 400.33
  A 2.04 2.04 0.0 0 0 875.47 398.36
  Q 874.70 398.58 873.93 398.40
  Q 873.03 398.18 873.30 397.30
  Q 873.37 397.10 873.51 396.96
  A 1.33 1.33 0.0 0 1 874.81 396.62
  Q 877.64 397.43 877.88 394.05
  Q 878.27 388.48 877.94 383.47
  A 1.91 1.90 -7.5 0 1 879.48 381.47
  L 890.60 379.35
  A 1.03 1.03 0.0 0 1 891.82 380.35
  L 891.91 395.14
  A 1.21 1.20 -0.9 0 0 893.16 396.34
  L 903.34 396.04
  A 0.83 0.83 0.0 0 1 904.19 396.83
  L 904.20 397.10
  Q 904.27 398.48 902.90 398.43
  L 892.85 398.12
  Z"
/>
<path fill="#010101" d="
  M 243.76 396.06
  Q 244.03 396.51 244.55 396.49
  L 254.10 396.11
  Q 255.39 396.06 255.25 397.35
  L 255.20 397.79
  Q 255.10 398.71 254.18 398.66
  L 245.02 398.13
  A 1.74 1.73 -87.9 0 0 243.19 399.84
  Q 242.88 419.89 243.31 432.91
  C 243.57 440.51 251.01 442.79 256.25 438.45
  A 1.94 1.14 -3.9 0 1 256.47 438.30
  Q 258.41 437.14 258.82 437.84
  A 2.06 2.04 51.0 0 1 258.58 440.26
  C 254.65 444.60 249.73 448.37 243.79 448.62
  C 238.29 448.86 233.57 447.76 231.10 442.27
  Q 229.32 438.33 229.26 433.20
  Q 229.09 417.86 229.20 400.33
  A 1.92 1.92 0.0 0 0 227.19 398.39
  L 224.97 398.49
  Q 224.29 398.52 224.25 397.84
  Q 224.23 397.48 224.35 397.12
  Q 224.59 396.45 225.29 396.47
  L 227.34 396.53
  Q 227.93 396.55 228.25 396.06
  Q 229.23 394.59 229.18 392.60
  Q 229.06 387.77 229.24 382.85
  A 1.50 1.49 -4.1 0 1 230.48 381.43
  L 242.08 379.43
  A 0.92 0.91 85.9 0 1 243.15 380.36
  Q 242.95 386.69 243.06 393.49
  Q 243.08 394.94 243.76 396.06
  Z"
/>
<path fill="#010101" d="
  M 132.80 419.16
  Q 142.42 419.74 152.38 419.05
  A 1.56 1.56 0.0 0 0 153.82 417.45
  C 153.63 410.02 152.27 402.39 146.14 397.47
  A 1.16 1.16 0.0 0 1 145.82 396.05
  Q 146.30 395.04 147.38 395.28
  C 151.91 396.30 157.01 397.71 160.48 400.93
  C 165.56 405.65 167.11 412.84 167.48 419.67
  Q 167.55 421.08 166.14 421.08
  Q 150.44 421.10 137.56 421.36
  Q 135.63 421.40 133.39 421.15
  A 1.10 1.10 0.0 0 0 132.18 422.34
  Q 132.95 432.09 140.80 437.25
  C 143.09 438.76 145.24 438.98 147.81 439.32
  Q 157.10 440.54 163.08 433.54
  Q 163.43 433.13 163.97 433.21
  Q 164.94 433.36 164.91 434.32
  Q 164.82 436.92 162.99 439.21
  C 157.01 446.73 148.14 449.50 138.68 448.31
  Q 133.63 447.68 128.69 443.98
  C 117.91 435.90 114.85 421.44 120.66 409.23
  C 124.55 401.08 131.05 398.14 139.17 395.34
  A 0.94 0.93 71.7 0 1 140.37 395.95
  Q 140.82 397.36 139.68 398.42
  C 136.56 401.31 134.67 403.61 133.63 408.06
  Q 132.38 413.37 131.96 418.19
  A 0.90 0.89 4.4 0 0 132.80 419.16
  Z"
/>
<path fill="#010101" d="
  M 211.73 410.11
  C 209.99 405.61 208.46 402.13 203.81 399.69
  Q 201.63 398.55 199.32 397.72
  A 1.10 1.10 0.0 0 1 199.04 395.80
  Q 199.85 395.21 200.89 395.35
  Q 207.14 396.23 212.87 398.20
  A 1.97 1.96 -80.2 0 1 214.20 400.09
  L 214.08 410.36
  A 0.80 0.80 0.0 0 1 213.22 411.15
  Q 212.11 411.08 211.73 410.11
  Z"
/>
<path fill="#010101" d="
  M 293.96 421.81
  A 0.85 0.85 0.0 0 0 293.04 421.36
  C 288.52 422.28 281.48 426.33 280.35 431.65
  C 279.66 434.93 280.23 440.89 284.56 441.36
  Q 286.99 441.62 289.53 441.66
  A 1.29 1.28 89.5 0 1 290.79 442.91
  Q 290.84 444.62 289.26 445.53
  Q 282.76 449.25 275.95 448.44
  C 270.85 447.83 266.06 443.47 265.70 438.17
  C 265.12 429.58 270.71 425.83 277.90 423.54
  Q 285.64 421.08 292.96 419.55
  A 1.79 1.78 -4.3 0 0 294.38 417.91
  Q 294.83 410.81 293.52 405.38
  Q 292.51 401.23 288.76 399.13
  C 286.80 398.04 284.61 398.29 282.49 397.80
  A 0.65 0.65 0.0 0 1 282.25 396.64
  C 285.57 394.23 292.92 395.46 296.51 396.37
  C 305.60 398.68 308.48 407.47 308.50 416.12
  Q 308.52 424.75 308.48 432.94
  C 308.47 435.46 309.22 437.82 310.35 440.03
  A 2.88 2.87 -16.0 0 0 313.16 441.58
  Q 315.26 441.39 317.15 440.29
  A 0.96 0.96 0.0 0 1 318.40 440.53
  Q 318.98 441.28 318.43 442.04
  Q 312.49 450.15 302.81 448.23
  Q 294.49 446.57 294.48 437.13
  Q 294.48 430.47 294.44 423.91
  Q 294.43 422.78 293.96 421.81
  Z"
/>
<path fill="#010101" d="
  M 360.34 401.49
  C 359.63 400.09 358.01 399.80 356.71 399.18
  Q 356.27 398.97 356.13 398.50
  Q 355.94 397.83 356.48 397.39
  Q 356.91 397.05 357.44 397.04
  Q 365.98 396.81 373.39 395.42
  A 1.14 1.13 -5.3 0 1 374.74 396.53
  Q 374.79 415.21 374.83 434.26
  C 374.84 438.02 374.08 442.70 379.42 443.37
  A 1.16 1.16 0.0 0 1 380.41 444.78
  Q 380.08 446.20 378.51 446.38
  Q 372.43 447.07 365.54 448.38
  Q 364.03 448.67 362.58 448.45
  A 1.71 1.70 -85.5 0 1 361.13 446.75
  Q 361.32 426.14 361.19 404.94
  Q 361.18 403.17 360.34 401.49
  Z"
/>
<path fill="#010101" d="
  M 462.72 422.18
  A 0.55 0.55 0.0 0 0 462.14 421.64
  C 454.48 421.98 444.55 430.36 449.55 438.94
  C 451.45 442.20 454.61 441.60 457.73 441.51
  A 1.29 1.28 -19.5 0 1 458.79 442.01
  C 459.48 442.91 459.42 444.20 458.39 444.85
  C 450.95 449.53 440.05 450.95 435.09 442.40
  C 432.48 437.90 433.60 431.01 437.91 427.70
  Q 442.11 424.49 447.73 422.98
  Q 454.43 421.19 461.54 419.20
  Q 462.70 418.88 462.74 417.68
  Q 462.95 411.25 461.83 406.08
  Q 460.05 397.79 451.15 398.09
  Q 450.02 398.13 450.33 397.04
  Q 450.38 396.86 450.50 396.72
  Q 451.42 395.73 452.73 395.56
  Q 460.15 394.62 467.04 397.18
  C 475.24 400.23 476.84 410.85 476.77 418.67
  Q 476.70 426.24 476.73 433.89
  C 476.74 436.10 477.91 442.07 481.20 441.59
  Q 483.40 441.28 485.47 440.24
  A 0.85 0.84 -12.9 0 1 486.70 441.01
  C 486.64 443.56 481.79 446.96 479.66 447.63
  C 473.95 449.43 465.78 448.99 463.69 442.37
  Q 462.63 439.02 462.70 434.60
  Q 462.81 428.20 462.72 422.18
  Z"
/>
<path fill="#010101" d="
  M 608.27 420.74
  Q 606.76 422.63 607.51 425.23
  Q 612.44 442.28 629.87 438.84
  Q 634.61 437.90 637.34 434.05
  A 1.79 1.77 -77.8 0 1 638.44 433.33
  Q 640.00 433.01 640.31 434.05
  Q 640.49 434.66 640.24 435.26
  Q 638.82 438.64 635.78 441.53
  Q 628.86 448.12 619.37 448.58
  Q 610.67 449.01 604.48 444.67
  C 594.96 437.99 591.23 427.37 593.29 415.88
  Q 595.17 405.35 604.73 399.30
  C 607.46 397.57 610.66 396.86 613.58 395.37
  A 0.91 0.91 0.0 0 1 614.88 395.95
  C 615.44 398.08 613.43 399.61 612.14 400.98
  C 608.58 404.75 607.14 412.94 607.20 417.81
  A 1.75 1.74 -6.8 0 0 609.34 419.49
  C 611.26 419.03 613.31 419.48 615.30 419.47
  Q 621.25 419.45 627.12 419.06
  A 1.90 1.89 -5.7 0 0 628.87 416.93
  C 627.90 409.56 627.69 403.44 621.65 398.11
  Q 620.95 397.49 620.88 396.55
  A 1.12 1.11 2.6 0 1 622.18 395.37
  Q 626.52 396.13 630.51 397.81
  C 640.16 401.90 641.95 411.17 642.22 420.48
  A 0.67 0.67 0.0 0 1 641.53 421.17
  Q 625.95 420.83 612.91 421.52
  Q 610.93 421.62 609.17 420.57
  A 0.70 0.69 -55.4 0 0 608.27 420.74
  Z"
/>
<path fill="#010101" d="
  M 764.56 400.98
  C 763.57 399.93 761.94 399.85 760.68 399.21
  Q 760.22 398.98 760.30 398.47
  Q 760.50 397.23 761.80 397.16
  Q 771.07 396.69 778.91 395.41
  A 1.08 1.07 -4.8 0 1 780.16 396.46
  Q 780.29 411.99 780.12 428.44
  C 780.05 435.17 781.16 440.70 789.34 440.27
  Q 791.37 440.17 793.64 439.07
  Q 795.54 438.14 795.49 440.25
  Q 795.49 440.60 795.39 440.96
  Q 794.89 442.83 793.18 443.73
  Q 791.60 444.56 790.08 445.61
  C 785.63 448.69 775.74 450.26 771.32 446.18
  C 766.58 441.80 766.34 436.02 766.30 429.96
  Q 766.23 417.14 766.45 405.96
  Q 766.50 403.04 764.56 400.98
  Z"
/>
<path fill="#010101" d="
  M 838.35 405.73
  Q 840.51 409.60 844.68 412.20
  Q 851.84 416.66 857.87 420.78
  C 863.91 424.91 866.94 432.06 864.69 439.20
  C 862.99 444.60 856.73 447.94 851.59 448.62
  A 1.18 1.17 -23.0 0 1 850.49 448.18
  Q 849.96 447.51 850.27 446.70
  C 851.24 444.09 854.41 443.39 854.12 440.35
  Q 853.58 434.66 847.85 431.09
  Q 842.56 427.80 836.97 424.41
  C 828.90 419.52 822.36 410.86 829.02 401.65
  Q 830.44 399.69 833.05 398.22
  Q 836.20 396.45 838.40 395.90
  Q 844.22 394.44 840.43 399.08
  C 838.95 400.89 836.99 403.28 838.35 405.73
  Z"
/>
<path fill="#010101" d="
  M 916.42 432.09
  C 911.64 420.26 916.06 404.62 927.86 398.63
  Q 930.93 397.06 936.83 395.35
  A 1.36 1.35 -34.7 0 1 938.02 395.56
  Q 938.64 396.02 938.50 396.75
  Q 938.39 397.30 937.89 397.58
  Q 931.99 400.87 931.52 408.22
  Q 930.77 420.11 931.32 432.59
  C 931.58 438.40 932.49 443.77 938.19 446.51
  A 0.99 0.99 0.0 0 1 938.06 448.34
  Q 936.99 448.67 935.84 448.42
  Q 921.79 445.36 916.42 432.09
  Z"
/>
<path fill="#010101" d="
  M 965.92 431.82
  Q 960.52 446.07 945.27 448.59
  A 1.35 1.35 0.0 0 1 943.77 446.83
  C 944.45 444.83 948.41 444.35 949.40 441.47
  Q 950.26 439.00 950.52 436.58
  Q 951.89 423.72 950.60 407.73
  C 950.19 402.69 948.25 400.15 944.31 397.52
  A 1.14 1.14 0.0 0 1 944.85 395.44
  Q 946.01 395.35 947.19 395.75
  C 951.68 397.27 955.98 398.85 959.47 402.08
  C 967.34 409.36 969.59 422.14 965.92 431.82
  Z"
/>
<path fill="#010101" d="
  M 193.86 428.00
  Q 187.91 424.73 183.26 420.91
  C 179.21 417.58 175.84 411.20 177.76 406.00
  C 179.99 399.94 184.83 396.93 190.76 395.78
  Q 195.32 394.89 192.13 398.27
  Q 191.34 399.11 190.68 399.94
  C 186.94 404.63 191.01 409.17 194.99 411.75
  Q 200.21 415.13 205.10 418.15
  Q 210.67 421.58 212.78 424.41
  Q 216.48 429.38 216.71 434.42
  C 216.85 437.40 215.23 441.29 213.08 443.42
  Q 208.44 447.99 202.28 448.59
  A 1.22 1.22 0.0 0 1 201.16 446.67
  Q 202.49 444.77 204.11 443.17
  Q 204.91 442.37 204.94 441.25
  C 205.12 434.20 199.27 430.97 193.86 428.00
  Z"
/>
<path fill="#010101" d="
  M 341.96 429.68
  C 341.93 435.28 344.27 441.19 351.00 440.07
  Q 353.55 439.64 356.23 439.13
  A 1.01 1.01 0.0 0 1 357.40 440.38
  Q 356.87 442.44 355.09 443.78
  Q 347.55 449.46 338.78 448.50
  C 331.33 447.68 328.37 440.19 328.30 433.65
  Q 328.15 420.09 328.31 405.02
  C 328.35 401.13 325.52 400.26 322.53 399.06
  A 0.82 0.82 0.0 0 1 322.01 398.28
  Q 322.03 397.39 322.74 397.34
  Q 331.77 396.69 340.70 395.51
  A 1.10 1.10 0.0 0 1 341.95 396.59
  Q 342.05 413.82 341.96 429.68
  Z"
/>
<path fill="#010101" d="
  M 388.17 442.41
  Q 389.15 439.59 389.18 436.79
  Q 389.36 422.63 389.23 409.02
  C 389.20 405.57 387.52 404.41 385.14 402.62
  Q 381.31 399.74 386.06 399.09
  Q 393.19 398.11 401.62 395.70
  Q 403.51 395.15 403.48 397.12
  Q 403.15 414.58 403.31 432.78
  C 403.36 437.85 403.02 442.80 407.68 446.09
  A 0.79 0.78 -39.6 0 1 407.55 447.45
  Q 406.50 447.92 405.25 447.88
  Q 395.89 447.64 385.85 447.88
  A 0.95 0.95 0.0 0 1 384.92 446.67
  Q 385.58 444.40 387.49 443.25
  A 1.62 1.61 -6.2 0 0 388.17 442.41
  Z"
/>
<path fill="#010101" d="
  M 409.59 404.36
  L 407.50 405.27
  A 0.77 0.77 0.0 0 1 406.42 404.53
  Q 406.45 404.02 406.72 403.62
  C 409.59 399.28 416.02 394.37 421.49 395.75
  C 428.23 397.45 430.37 404.91 425.26 409.79
  Q 423.80 411.19 421.88 411.60
  Q 414.89 413.11 412.02 405.40
  A 1.82 1.81 68.0 0 0 409.59 404.36
  Z"
/>
<path fill="#010101" d="
  M 508.92 435.45
  C 508.97 439.60 509.74 443.19 513.10 445.75
  A 1.01 1.00 29.8 0 1 513.43 446.93
  Q 513.08 447.79 512.31 447.78
  Q 502.07 447.74 491.49 447.81
  A 0.77 0.77 0.0 0 1 490.77 447.32
  Q 490.53 446.70 490.87 446.12
  Q 491.79 444.61 493.30 443.41
  A 1.95 1.86 -11.9 0 0 493.93 442.49
  Q 494.65 440.23 494.68 438.07
  Q 494.88 423.66 494.69 408.56
  Q 494.63 404.33 491.42 402.80
  A 2.78 2.67 75.9 0 1 490.86 402.45
  Q 488.96 400.90 489.91 399.71
  Q 490.24 399.28 490.77 399.22
  Q 499.43 398.20 507.48 395.44
  A 0.78 0.77 70.6 0 1 508.45 395.91
  Q 509.01 397.47 508.98 399.14
  Q 508.70 417.20 508.92 435.45
  Z"
/>
<path fill="#010101" d="
  M 527.30 413.00
  C 527.26 408.96 525.20 405.05 521.23 403.85
  C 518.88 403.13 516.44 403.82 514.08 404.11
  A 0.98 0.98 0.0 0 1 513.09 402.68
  C 514.60 399.82 517.58 398.28 520.44 397.12
  C 531.30 392.70 541.12 397.17 541.22 409.78
  Q 541.35 425.28 541.42 438.62
  C 541.44 441.77 543.58 443.73 545.11 446.19
  Q 545.40 446.65 545.28 447.16
  A 0.91 0.91 0.0 0 1 544.38 447.86
  L 523.45 447.75
  A 0.72 0.72 0.0 0 1 522.87 446.60
  C 524.22 444.76 526.19 443.37 526.72 441.07
  Q 527.26 438.70 527.29 436.35
  Q 527.43 424.77 527.30 413.00
  Z"
/>
<path fill="#010101" d="
  M 813.78 441.35
  Q 814.27 442.59 815.57 442.87
  Q 816.84 443.14 817.68 444.01
  Q 819.52 445.91 816.89 446.25
  Q 810.12 447.13 802.98 448.46
  Q 801.68 448.70 800.62 448.41
  A 1.78 1.77 7.6 0 1 799.32 446.72
  Q 799.17 426.01 799.39 405.32
  C 799.43 401.16 797.34 400.74 794.31 399.07
  A 0.77 0.77 0.0 0 1 794.11 397.88
  Q 794.54 397.39 795.16 397.34
  Q 803.40 396.67 812.25 395.50
  A 0.76 0.76 0.0 0 1 813.11 396.26
  Q 813.05 417.06 813.24 438.68
  Q 813.25 440.02 813.78 441.35
  Z"
/>
<path fill="#010101" d="
  M 861.43 410.75
  C 858.26 404.30 855.63 399.79 848.06 397.75
  A 1.09 1.08 -47.3 0 1 847.98 395.68
  Q 848.94 395.34 850.03 395.45
  Q 856.39 396.13 861.81 398.32
  A 1.93 1.93 0.0 0 1 863.03 400.07
  L 863.30 410.04
  A 1.10 1.08 -17.1 0 1 862.80 410.97
  Q 861.83 411.57 861.43 410.75
  Z"
/>
<path fill="#010101" d="
  M 997.24 398.49
  C 995.62 400.18 994.69 402.55 995.74 404.83
  Q 1002.24 418.85 1008.07 431.28
  C 1008.61 432.43 1008.33 434.35 1007.79 435.51
  Q 1005.19 441.05 1003.66 446.32
  Q 1002.26 451.12 999.98 446.67
  Q 996.57 440.01 993.36 432.84
  C 989.09 423.29 984.35 414.09 980.14 404.41
  Q 978.33 400.24 974.01 398.58
  Q 973.10 398.23 972.86 397.28
  A 1.04 1.03 85.5 0 1 973.96 395.99
  Q 985.04 397.08 996.07 396.07
  Q 999.88 395.72 997.24 398.49
  Z"
/>
<path fill="#010101" d="
  M 1015.43 404.20
  C 1015.42 401.04 1012.39 399.55 1009.83 398.67
  A 1.49 1.48 -85.0 0 1 1008.85 397.50
  Q 1008.58 395.87 1009.94 396.02
  Q 1020.11 397.14 1028.71 396.02
  Q 1029.76 395.89 1029.89 396.94
  L 1029.95 397.40
  Q 1030.08 398.35 1029.15 398.60
  C 1022.07 400.49 1018.98 407.93 1016.42 414.16
  A 1.74 1.68 77.7 0 1 1016.16 414.58
  Q 1014.86 416.11 1014.13 414.32
  A 1.16 1.14 42.4 0 1 1014.09 413.57
  Q 1015.45 408.54 1015.43 404.20
  Z"
/>
<path fill="#010101" d="
  M 277.82 401.71
  C 279.10 403.00 280.57 404.18 281.39 405.84
  Q 283.71 410.59 279.48 413.96
  C 275.85 416.86 270.67 414.08 270.02 409.84
  C 269.35 405.55 272.73 401.78 276.16 399.57
  Q 276.75 399.19 276.98 399.86
  L 277.34 400.93
  A 2.03 1.96 -77.6 0 0 277.82 401.71
  Z"
/>
<path fill="#010101" d="
  M 441.00 414.13
  C 434.76 409.74 439.34 403.18 443.79 399.53
  A 0.57 0.57 0.0 0 1 444.69 399.77
  L 445.11 400.88
  A 2.32 2.21 -79.4 0 0 445.65 401.71
  C 447.34 403.32 449.74 404.84 450.22 407.22
  Q 451.39 412.95 445.78 414.80
  Q 443.18 415.66 441.00 414.13
  Z"
/>
<path fill="#010101" d="
  M 750.33 421.34
  C 747.61 427.46 748.10 435.93 748.24 442.75
  Q 748.25 443.25 747.85 443.55
  Q 746.77 444.38 745.49 444.77
  Q 733.39 448.47 724.12 448.72
  Q 723.01 448.75 722.74 447.67
  Q 722.59 447.06 723.67 446.43
  A 1.52 1.50 -59.5 0 1 724.42 446.23
  C 727.07 446.24 732.30 444.81 733.01 441.62
  Q 734.35 435.54 733.53 427.05
  C 732.97 421.27 730.96 419.05 725.10 418.49
  A 0.78 0.78 0.0 0 1 724.44 418.00
  Q 724.18 417.31 724.68 416.65
  A 1.07 1.07 0.0 0 1 725.52 416.24
  C 728.98 416.25 732.34 416.79 735.76 416.68
  Q 742.49 416.46 749.21 416.73
  C 750.77 416.79 752.17 416.29 753.68 416.11
  Q 754.93 415.97 754.90 417.23
  L 754.90 417.56
  A 1.55 1.55 0.0 0 1 753.55 419.06
  Q 751.21 419.37 750.33 421.34
  Z"
/>
<path fill="#010101" d="
  M 182.60 435.44
  Q 185.66 443.21 193.69 445.70
  Q 195.01 446.11 195.27 447.47
  Q 195.32 447.72 195.24 447.97
  Q 194.93 449.05 193.80 448.89
  Q 186.14 447.81 180.11 444.52
  C 178.77 443.79 178.16 442.21 178.26 440.72
  Q 178.56 436.26 177.99 431.12
  A 1.40 1.39 72.5 0 1 178.71 429.73
  Q 180.00 429.01 180.49 430.19
  Q 181.55 432.76 182.60 435.44
  Z"
/>
<path fill="#010101" d="
  M 830.02 430.59
  C 831.86 438.01 835.73 443.92 843.22 445.89
  Q 844.53 446.24 844.73 447.58
  A 1.06 1.05 -2.1 0 1 843.60 448.79
  C 840.05 448.53 827.13 446.21 827.14 441.46
  Q 827.15 436.35 827.02 431.12
  A 1.47 1.47 0.0 0 1 827.97 429.70
  Q 829.65 429.07 830.02 430.59
  Z"
/>
</svg>
